<svg width="611" height="813" fill="none" xmlns="http://www.w3.org/2000/svg"><rect x="548" y="659" width="436" height="659" rx="218" transform="rotate(-180 548 659)" fill="#A2C2FE"/><path d="M258.386 635.674s2.477 30.26-10.998 50.204-26.59 32.662-18.788 56.076l101.404-49.855-12.405-68.085-59.213 11.66Z" fill="#334DD7"/><path d="m256.948 674.504 23.197-4.486" stroke="#fff" stroke-width="1.429" stroke-miterlimit="10" stroke-linecap="round"/><path d="M365.304 698.897s7.735 30.743-2.73 53.434c-10.465 22.69-21.795 37.89-9.771 60.669l95.859-67.608-24.4-68.082-58.958 21.587Z" fill="#334DD7"/><path d="m370.276 743.429 24.127-4.953" stroke="#fff" stroke-width="1.49" stroke-miterlimit="10" stroke-linecap="round"/><path d="M291.3 222.351s-6.202-30.302 4.711-40.96c10.913-10.657 28.676-15.329 37.866-13.575 6.25 1.21 14.367 3.978 15.48 19.852 1.112 15.873-1.345 21.174-1.345 21.174s-6.144 20.949-17.927 22.957c-11.784 2.007-34.722 1.951-38.785-9.448Z" fill="#F3ABAA"/><path d="M318.622 171.944s1.345 10.873 3.492 22.901c1.529 8.499 10.342 11.107 13.97 3.93" stroke="#FF2633" stroke-width=".845" stroke-miterlimit="10" stroke-linecap="round"/><path d="M328.374 213.908s-7.207-7.271-3.966-17.168c3.241-9.898 7.923-4.691 7.923-4.691s10.149 9.138 12.8 12.581c2.089 2.72 5.398 10.32 2.157 14.673a31.966 31.966 0 0 1-9.907 8.556c-1.296.647-4.905 3.293-10.642.703-.483-.225-7.913-5.422 1.635-14.654Z" fill="#F3ABAA"/><path d="M472.224 479.801s19.89-23.913 24.302-48.784l-151.812-27.319-82.137 46.335c-20.984 10.367-44.958 40.904-33.793 90.758 9.955 44.469 20.8 105.552 20.906 106.209 13.333 6.96 28.722 9.278 43.603 6.567 12.17-2.38 23.61-7.445 33.436-14.804-.349-2.073-16.873-68.983-23.49-104.483-2.216-11.886-2.032-21.971 8.949-27.685 0 0 24.67-11.004 32.526-14.926 3.744-1.876 10.167-5.629 16.611-9.494-17.414 21.183-22.165 28.783-25.154 33.642-9.791 15.949-22.426 28.248-14.415 81.301 3.705 24.542 12.983 48.118 26.121 86.151 2.96 8.556 6.105 17.825 9.433 28.042 0 0 22.377 3.396 44.415-3.753 23.519-7.599 33.029-25.865 33.029-25.865-40.633-90.917-40.497-105.139-29.526-129.991 4.527-10.301 41.01-43.521 66.996-71.901Z" fill="#0D0F44"/><path d="m362.477 478.075-3.957-13.547M353.316 699.2s37.498 8.443 66.947-17.779M247.574 635.264s21.796 11.793 46.844 3.828" stroke="#fff" stroke-width=".845" stroke-miterlimit="10" stroke-linecap="round"/><path d="M539.683 307.724c-16.108-40.998-58.105-68.017-86.006-75.55a76.884 76.884 0 0 0-43.245-2.815c-38.698 3.078-74.078 41.936-74.078 41.936-.474-13.763-.774-34.712-.861-41.335a5.455 5.455 0 0 0-1.558-3.753c-3.492-3.555-12.48-11.483-22.435-10.32-6.642.834-12.93 3.391-18.198 7.403a9.692 9.692 0 0 0-3.376 4.756C255.03 338.233 265.159 363.582 281.5 373.77c15.43 9.626 27.717-.112 41.9-8.443a433.476 433.476 0 0 0-2.68 27.629s-2.196 19.082 14.599 27.441c35.534 17.665 66.986 34.543 158.855 16.211 0 0 3.106-6.717 6.879-18.04a40.884 40.884 0 0 0 17.682-.319 40.145 40.145 0 0 0 15.782-7.74c18.391-11.474 23.374-56.449 5.166-102.785Z" fill="#3D5CFF"/><path d="M492.876 293.848s6.095 35.228 3.647 45.914l-3.647-45.914Z" fill="#3D5CFF"/><path d="M492.876 293.848s6.095 35.228 3.647 45.914" stroke="#fff" stroke-width=".845" stroke-miterlimit="10" stroke-linecap="round"/><path d="M370.496 257.683s-26.615 18.228-45.122 98.825l45.122-98.825Z" fill="#3D5CFF"/><path d="M370.496 257.683s-26.615 18.228-45.122 98.825" stroke="#fff" stroke-width=".845" stroke-miterlimit="10" stroke-linecap="round"/><path d="M583.555 106.085s9.113 33.052-1.984 48.785c-8.842 12.524 4.983 10.798 4.983 10.798s14.26.122 12.209-29.242c-1.848-26.532-15.208-30.341-15.208-30.341Z" fill="#FFD550"/><path d="M508.877 2.25c4.963-3.087 11.078-2.75 16.447-.413 10.352 4.503 32.226 16.634 42.307 23.65 13.486 9.383 24.292 17.17 34.054 25.885 5.988 5.357 12.035 17.318 7.343 28.858-6.366 15.667-17.888 38.539-45.209 48.943-7.682 2.918-18.991 1.014-25.154-4.315-18.498-15.949-52.755-48.588-58.347-70.747a11.321 11.321 0 0 1 .387-6.698c3.048-8.218 11.745-34.965 28.172-45.163Z" fill="#334DD7"/><path d="M485.185 76.167s2.805-11.323 22.57-27.075c3.628-2.89 8.611-4.69 13.003-3.115 9.674 3.565 26.324 12.666 41.049 40.688a12.785 12.785 0 0 1 1.298 6.945 12.89 12.89 0 0 1-2.595 6.593c-5.069 6.792-12.944 14.504-39.743 22.985l-35.582-47.02Z" fill="#334DD7"/><path d="M522.027 122.541c4.705-3.653.187-16.703-10.09-29.147-10.277-12.444-22.422-19.57-27.127-15.917-4.704 3.654-.186 16.703 10.091 29.148 10.277 12.444 22.422 19.57 27.126 15.916ZM467.868 117.775s12.577 7.571 12.064 26.39c0 0 6.047-2.242 10.313.188 6.686 3.752 10.091 19.223.765 36.053 0 0-9.597 27.882-22.126 20.199l-37.15-42.049 36.134-40.781Z" fill="#0D0F44"/><path d="M430.659 188.793c-1.354 18.22-14.424 45.229-14.424 45.229s13.544 14.682 49.098 6.352c0 0 1.403-17.722 1.596-23.107.861-23.248-2.97-31.607-3.25-27.535l-33.02-.939Z" fill="#F3ABAA"/><path d="M423.84 215.841s25.154 5.629 43.003-12.994a108.34 108.34 0 0 0-.154-2.176l-38.389 1.144c-1.248 4.785-2.844 9.607-4.46 14.026Z" fill="#0D0F44"/><path d="M443.036 210.174c21.404 0 38.756-16.826 38.756-37.583 0-20.756-17.352-37.582-38.756-37.582-21.405 0-38.756 16.826-38.756 37.582 0 20.757 17.351 37.583 38.756 37.583Z" fill="#F3ABAA"/><path d="M480.911 181.41c-2.38 4.475-4.914 4.034-5.64 2.59-1.993-4.016-.358-7.506-2.477-20.64-.764-4.314-3.115-8.214-6.617-10.976-10.381-8.744-27.089-6.614-27.408-6.568-4.092.216-8.049 1.567-11.696 2.571-29.285 8.068-30.243-10.029-30.243-17.881 0-13.285 10.816-24.064 24.186-24.064a24.644 24.644 0 0 1 11.981 3.173 23.708 23.708 0 0 1 8.752 8.545c3.882-3.613 9.054-5.629 14.434-5.629 11.736 0 21.284 9.475 21.284 21.155a20.994 20.994 0 0 1-2.496 9.973c5.283 3.471 7.614 11.351 8.378 14.41 1.616 6.426.445 17.909-2.438 23.341Z" fill="#0D0F44"/><path d="M449.682 167.983c.35-2.918-.562-5.419-2.037-5.585-1.476-.167-2.956 2.064-3.306 4.982-.35 2.918.562 5.418 2.037 5.585 1.475.166 2.956-2.064 3.306-4.982ZM429.571 165.704c.351-2.918-.561-5.419-2.037-5.586-1.475-.166-2.955 2.065-3.305 4.983-.351 2.918.561 5.418 2.037 5.585 1.475.166 2.955-2.064 3.305-4.982Z" fill="#0D0F44"/><path d="M447.029 190.904s7.062 2.711 9.984-5.901" stroke="#0D0F44" stroke-width=".845" stroke-miterlimit="10" stroke-linecap="round"/><path d="M484.806 188.895c5.684-4.013 8.018-10.296 5.213-14.032-2.806-3.736-9.688-3.511-15.372.502-5.685 4.014-8.018 10.297-5.213 14.033 2.805 3.736 9.688 3.511 15.372-.503Z" fill="#F3ABAA"/><path d="m475.269 184 11.445-4.748M436.834 167.788l-2.525 10.47a2.195 2.195 0 0 0 .345 1.783c.182.257.418.475.691.64.274.165.58.272.898.316l2.593.404" stroke="#0D0F44" stroke-width=".845" stroke-miterlimit="10" stroke-linecap="round"/><path d="m466.206 437.556-116.452-18.275c-4.401-.69-8.367-2.977-11.096-6.396-2.728-3.419-4.015-7.716-3.599-12.02l7.594-78.806c.823-8.443 8.436-13.809 17.192-14.185 18.198-.769 38.93-1.398 63.687.779 23.828 2.101 41.784 4.756 55.6 7.036 16.243 2.674 22.193 11.643 21.003 23.933l-7.537 78.13a21.628 21.628 0 0 1-2.724 8.612 22.33 22.33 0 0 1-6.036 6.848 23.133 23.133 0 0 1-8.351 3.948 23.518 23.518 0 0 1-9.281.396Z" fill="#fff"/><path d="m396.068 403.417-7.585-9.541-11.551 2.898a156.895 156.895 0 0 1 15.982-30.959l16.911 10.902a139.137 139.137 0 0 0-13.757 26.7Zm13.757-26.7-8.455-5.47 8.455 5.46v.01ZM420.022 404.824c-3.87-14.926-5.07-31.851-5.118-32.564l20.316-1.294c0 .159 1.113 15.883 4.538 29.036l-11.61-4.138-8.126 8.96Z" fill="#FF2633"/><path d="M392.921 365.787c-.164.225-1.789 2.608-4.073 6.445 3.971 5.609 9.802 9.731 16.524 11.68 2.477-4.296 4.335-7.036 4.451-7.195l-8.456-5.46-8.446-5.47ZM435.181 370.966l-20.317 1.294c0 .394.407 5.77 1.393 13.031 7.19-.229 14.085-2.823 19.553-7.355-.436-4.137-.629-6.905-.629-6.97Z" fill="#0D0F44"/><path d="M445.767 354.168c.655-15.282-12.559-28.224-29.514-28.908-16.955-.683-31.231 11.152-31.886 26.434-.655 15.282 12.559 28.224 29.514 28.908 16.955.683 31.231-11.152 31.886-26.434Z" fill="#FF2633"/><path d="m418.107 340.56 2.07 5.854c.114.31.302.589.549.815.248.225.547.389.873.48l6.153 1.651c.377.103.716.305.98.585.264.279.442.625.514.997.073.373.036.758-.105 1.111-.14.354-.38.662-.692.891l-5.099 3.752a2.047 2.047 0 0 0-.633.754 1.985 1.985 0 0 0-.199.954l.281 6.182c.016.379-.077.755-.269 1.086-.192.33-.476.602-.819.784a2.153 2.153 0 0 1-2.211-.115l-5.224-3.556a2.132 2.132 0 0 0-.938-.35 2.166 2.166 0 0 0-.997.115l-5.979 2.158a2.166 2.166 0 0 1-1.145.086 2.127 2.127 0 0 1-1.02-.512 2.017 2.017 0 0 1-.59-.956 1.979 1.979 0 0 1 .017-1.113l1.867-5.911c.104-.317.126-.654.063-.981a1.99 1.99 0 0 0-.421-.895l-4.015-4.888a1.984 1.984 0 0 1-.247-2.128c.167-.342.429-.632.756-.838a2.151 2.151 0 0 1 1.097-.327l6.386-.112c.341-.009.675-.099.972-.263.297-.164.548-.396.73-.676l3.531-5.159c.217-.327.526-.587.891-.748a2.144 2.144 0 0 1 2.236.312c.303.254.524.588.637.961Z" fill="#FFD550"/><path d="M363.504 314.366s-13.216-1.351-14.367 9.888l-1.2 11.258M464.137 320.22s15.479 1.192 24.341 7.084" stroke="#DADEEB" stroke-width="1.267" stroke-miterlimit="10" stroke-linecap="round"/><path d="M474.643 359.107s3.144-13.753 19.427-8.659c16.282 5.094 22.145 15.564 22.087 20.499 0 2.289 1.547 44.637-11.484 48.137-5.573 1.501-29.024-.151-33.706-19.758-4.683-19.608 3.676-40.219 3.676-40.219Z" fill="#F3ABAA"/><path d="M477.844 357.521s11.832 1.652 17.656 6.352M474.776 369.464s11.832 1.651 17.656 6.351M473.402 380.337s11.88 1.652 17.685 6.342M473.402 393.481s9.433 0 15.257 4.691" stroke="#FF2633" stroke-width=".845" stroke-miterlimit="10" stroke-linecap="round"/><path d="m88.857 375.29 13.302 10.179a5.634 5.634 0 0 0 2.425 1.078 5.718 5.718 0 0 0 2.664-.14l16.185-4.85a5.722 5.722 0 0 1 3.058-.069 5.6 5.6 0 0 1 2.633 1.508 5.352 5.352 0 0 1 1.413 2.63 5.238 5.238 0 0 1-.235 2.957l-5.882 15.405a5.245 5.245 0 0 0 .668 4.982l9.761 13.434a5.287 5.287 0 0 1 1.008 2.797 5.264 5.264 0 0 1-.667 2.891 5.474 5.474 0 0 1-2.141 2.114 5.707 5.707 0 0 1-2.969.698l-16.931-.657a5.712 5.712 0 0 0-2.616.518 5.53 5.53 0 0 0-2.066 1.64l-10.158 13.134a5.552 5.552 0 0 1-2.429 1.773 5.726 5.726 0 0 1-3.027.271 5.632 5.632 0 0 1-2.722-1.313 5.371 5.371 0 0 1-1.603-2.504l-4.615-15.855a5.387 5.387 0 0 0-1.318-2.249 5.61 5.61 0 0 0-2.242-1.4l-16.012-5.263a5.571 5.571 0 0 1-2.513-1.688 5.312 5.312 0 0 1-1.214-2.72 5.25 5.25 0 0 1 .45-2.932 5.446 5.446 0 0 1 1.981-2.258l14.096-9.119a5.436 5.436 0 0 0 1.802-1.907 5.246 5.246 0 0 0 .674-2.502l.204-16.427a5.275 5.275 0 0 1 .877-2.85 5.516 5.516 0 0 1 2.301-1.967 5.717 5.717 0 0 1 3.026-.484 5.652 5.652 0 0 1 2.832 1.145Z" fill="#FFD550"/><path d="M142.347 190.453 28.54 218.133a8.263 8.263 0 0 1-3.202.151 8.168 8.168 0 0 1-3.007-1.078 7.908 7.908 0 0 1-2.33-2.135 7.653 7.653 0 0 1-1.281-2.85L.274 128.523a7.547 7.547 0 0 1-.02-3.168 7.66 7.66 0 0 1 1.283-2.913 7.924 7.924 0 0 1 2.375-2.175 8.179 8.179 0 0 1 3.073-1.076l116.36-16.093a8.215 8.215 0 0 1 5.738 1.31 7.773 7.773 0 0 1 3.264 4.76l15.867 72.112a7.577 7.577 0 0 1-1.025 5.734 8.005 8.005 0 0 1-4.842 3.439Z" fill="#BEDDFA"/><path d="M148.294 181.621c0-.111 0-.222-.057-.341l-.107-.318c-.106 0-10.237 2.992-25.966-12.967-17.643-17.887-32.373-16.426-43.233-13.157a31.24 31.24 0 0 0-8.461 4.246c-3.27-3.44-7.5-5.883-12.177-7.031-7.553-2.008-19.591.888-35.786 8.618-5.107 2.428-9.82 4.983-13.593 7.142l.164.706c12.57-7.142 36.367-19.165 49.027-15.792 4.52 1.11 8.612 3.463 11.784 6.777-7.316 5.23-14.125 13.634-15.794 22.22-1.375 7.063.957 13.165 6.751 17.657a7.31 7.31 0 0 0 5.106 1.69 6.764 6.764 0 0 0 1.817-.405c4.91-1.817 8.478-8.784 9.485-14.72a38.44 38.44 0 0 0-1.334-17.395 25.953 25.953 0 0 0-4.992-8.952 30.615 30.615 0 0 1 8.183-4.102c10.639-3.214 25.132-4.635 42.554 12.982 15.68 15.896 25.729 13.404 26.629 13.142Zm-73.02-12.864a37.68 37.68 0 0 1 1.317 17.094c-.958 5.554-4.485 12.459-9.051 14.173-2.111.793-4.206.381-6.228-1.183a16.723 16.723 0 0 1-5.868-7.559 16.19 16.19 0 0 1-.678-9.439c1.636-8.451 8.363-16.72 15.548-21.847a25.088 25.088 0 0 1 4.96 8.761Z" fill="#fff"/><path d="M515.737 54.013c6.365 3.527 32.06 19.986 33.205 48.854 0 4.442-1.145 14.879-10.305 16.655l-9.16 3.331" stroke="#fff" stroke-linecap="round"/></svg>