<svg xmlns="http://www.w3.org/2000/svg" width="300" height="302" fill="none" viewBox="0 0 300 302"><g clip-path="url(#clip0_12_174)"><rect width="300" height="302" fill="url(#paint0_linear_12_174)"/><g clip-path="url(#clip1_12_174)"><path fill="#1E53C0" d="M0.400111 -1.81386C0.400111 -0.606274 -0.580009 0.372285 -1.78952 0.372285C-3.01988 0.393106 -4 -0.606274 -4 -1.81386C-4 -3.02144 -3.01988 -4 -1.81037 -4C-0.600862 -4 0.400111 -3.02144 0.400111 -1.81386Z"/><path fill="#1E53C0" d="M27.76 0.372285C28.9693 0.372285 29.9497 -0.606484 29.9497 -1.81386C29.9497 -3.02123 28.9693 -4 27.76 -4C26.5507 -4 25.5704 -3.02123 25.5704 -1.81386C25.5704 -0.606484 26.5507 0.372285 27.76 0.372285Z"/><path fill="#1E53C0" d="M57.3096 0.372285C58.5189 0.372285 59.4993 -0.606484 59.4993 -1.81386C59.4993 -3.02123 58.5189 -4 57.3096 -4C56.1003 -4 55.12 -3.02123 55.12 -1.81386C55.12 -0.606484 56.1003 0.372285 57.3096 0.372285Z"/><path fill="#1E53C0" d="M89.0697 -1.81386C89.0697 -0.606274 88.0895 0.372285 86.88 0.372285C85.6705 0.372285 84.6904 -0.606274 84.6904 -1.81386C84.6904 -3.02144 85.6705 -4 86.88 -4C88.0895 -4 89.0697 -3.02144 89.0697 -1.81386Z"/><path fill="#1E53C0" d="M116.43 0.372285C117.639 0.372285 118.619 -0.606484 118.619 -1.81386C118.619 -3.02123 117.639 -4 116.43 -4C115.22 -4 114.24 -3.02123 114.24 -1.81386C114.24 -0.606484 115.22 0.372285 116.43 0.372285Z"/><path fill="#1E53C0" d="M148.19 -1.81386C148.19 -0.606274 147.21 0.372285 146 0.372285C144.79 0.372285 143.81 -0.606274 143.81 -1.81386C143.81 -3.02144 144.79 -4 146 -4C147.21 -4 148.19 -3.02144 148.19 -1.81386Z"/><path fill="#1E53C0" d="M177.76 -1.81386C177.76 -0.606274 176.78 0.372285 175.57 0.372285C174.361 0.372285 173.381 -0.606274 173.381 -1.81386C173.36 -3.02144 174.34 -4 175.55 -4C176.78 -4 177.76 -3.02144 177.76 -1.81386Z"/><path fill="#1E53C0" d="M205.12 0.372285C206.329 0.372285 207.31 -0.606484 207.31 -1.81386C207.31 -3.02123 206.329 -4 205.12 -4C203.911 -4 202.93 -3.02123 202.93 -1.81386C202.93 -0.606484 203.911 0.372285 205.12 0.372285Z"/><path fill="#1E53C0" d="M234.69 0.372285C235.9 0.372285 236.88 -0.606484 236.88 -1.81386C236.88 -3.02123 235.9 -4 234.69 -4C233.481 -4 232.501 -3.02123 232.501 -1.81386C232.501 -0.606484 233.481 0.372285 234.69 0.372285Z"/><path fill="#1E53C0" d="M266.43 -1.81386C266.43 -0.606274 265.449 0.372285 264.24 0.372285C263.03 0.372285 262.05 -0.606274 262.05 -1.81386C262.05 -3.02144 263.03 -4 264.24 -4C265.449 -4 266.43 -3.02144 266.43 -1.81386Z"/><path fill="#1E53C0" d="M293.81 0.372285C295.02 0.372285 296 -0.606484 296 -1.81386C296 -3.02123 295.02 -4 293.81 -4C292.601 -4 291.621 -3.02123 291.621 -1.81386C291.621 -0.606484 292.601 0.372285 293.81 0.372285Z"/><path fill="#1E53C0" d="M0.400111 27.9593C0.400111 29.1669 -0.580009 30.1454 -1.78952 30.1454C-3.01988 30.1454 -4 29.1669 -4 27.9593C-4 26.7517 -3.01988 25.7731 -1.81037 25.7731C-0.600862 25.7523 0.400111 26.7517 0.400111 27.9593Z"/><path fill="#1E53C0" d="M27.76 30.1455C28.9693 30.1455 29.9497 29.1667 29.9497 27.9593C29.9497 26.752 28.9693 25.7732 27.76 25.7732C26.5507 25.7732 25.5704 26.752 25.5704 27.9593C25.5704 29.1667 26.5507 30.1455 27.76 30.1455Z"/><path fill="#1E53C0" d="M57.3096 30.1455C58.5189 30.1455 59.4993 29.1667 59.4993 27.9593C59.4993 26.752 58.5189 25.7732 57.3096 25.7732C56.1003 25.7732 55.12 26.752 55.12 27.9593C55.12 29.1667 56.1003 30.1455 57.3096 30.1455Z"/><path fill="#1E53C0" d="M89.0697 27.9593C89.0697 29.1669 88.0895 30.1454 86.88 30.1454C85.6705 30.1454 84.6904 29.1669 84.6904 27.9593C84.6904 26.7517 85.6705 25.7731 86.88 25.7731C88.0895 25.7523 89.0697 26.7517 89.0697 27.9593Z"/><path fill="#1E53C0" d="M116.43 30.1455C117.639 30.1455 118.619 29.1667 118.619 27.9593C118.619 26.752 117.639 25.7732 116.43 25.7732C115.22 25.7732 114.24 26.752 114.24 27.9593C114.24 29.1667 115.22 30.1455 116.43 30.1455Z"/><path fill="#1E53C0" d="M148.19 27.9593C148.19 29.1669 147.21 30.1454 146 30.1454C144.79 30.1454 143.81 29.1669 143.81 27.9593C143.81 26.7517 144.79 25.7731 146 25.7731C147.21 25.7523 148.19 26.7517 148.19 27.9593Z"/><path fill="#1E53C0" d="M177.76 27.9593C177.76 29.1669 176.78 30.1454 175.57 30.1454C174.361 30.1454 173.381 29.1669 173.381 27.9593C173.381 26.7517 174.361 25.7731 175.57 25.7731C176.78 25.7523 177.76 26.7517 177.76 27.9593Z"/><path fill="#1E53C0" d="M205.12 30.1455C206.329 30.1455 207.31 29.1667 207.31 27.9593C207.31 26.752 206.329 25.7732 205.12 25.7732C203.911 25.7732 202.93 26.752 202.93 27.9593C202.93 29.1667 203.911 30.1455 205.12 30.1455Z"/><path fill="#1E53C0" d="M234.69 30.1455C235.9 30.1455 236.88 29.1667 236.88 27.9593C236.88 26.752 235.9 25.7732 234.69 25.7732C233.481 25.7732 232.501 26.752 232.501 27.9593C232.501 29.1667 233.481 30.1455 234.69 30.1455Z"/><path fill="#1E53C0" d="M266.43 27.9593C266.43 29.1669 265.449 30.1454 264.24 30.1454C263.03 30.1454 262.05 29.1669 262.05 27.9593C262.05 26.7517 263.03 25.7731 264.24 25.7731C265.449 25.7523 266.43 26.7517 266.43 27.9593Z"/><path fill="#1E53C0" d="M293.81 30.1455C295.02 30.1455 296 29.1667 296 27.9593C296 26.752 295.02 25.7732 293.81 25.7732C292.601 25.7732 291.621 26.752 291.621 27.9593C291.621 29.1667 292.601 30.1455 293.81 30.1455Z"/><path fill="#1E53C0" d="M0.400111 57.7117C0.400111 58.9192 -0.580009 59.8978 -1.78952 59.8978C-3.01988 59.8978 -4 58.9192 -4 57.7117C-4 56.5041 -3.01988 55.5255 -1.81037 55.5255C-0.600862 55.5255 0.400111 56.5041 0.400111 57.7117Z"/><path fill="#1E53C0" d="M27.76 59.8978C28.9693 59.8978 29.9497 58.919 29.9497 57.7117C29.9497 56.5043 28.9693 55.5255 27.76 55.5255C26.5507 55.5255 25.5704 56.5043 25.5704 57.7117C25.5704 58.919 26.5507 59.8978 27.76 59.8978Z"/><path fill="#1E53C0" d="M57.3096 59.8978C58.5189 59.8978 59.4993 58.919 59.4993 57.7117C59.4993 56.5043 58.5189 55.5255 57.3096 55.5255C56.1003 55.5255 55.12 56.5043 55.12 57.7117C55.12 58.919 56.1003 59.8978 57.3096 59.8978Z"/><path fill="#1E53C0" d="M89.0697 57.7117C89.0697 58.9192 88.0895 59.8978 86.88 59.8978C85.6705 59.8978 84.6904 58.9192 84.6904 57.7117C84.6904 56.5041 85.6705 55.5255 86.88 55.5255C88.0895 55.5255 89.0697 56.5041 89.0697 57.7117Z"/><path fill="#1E53C0" d="M116.43 59.8978C117.639 59.8978 118.619 58.919 118.619 57.7117C118.619 56.5043 117.639 55.5255 116.43 55.5255C115.22 55.5255 114.24 56.5043 114.24 57.7117C114.24 58.919 115.22 59.8978 116.43 59.8978Z"/><path fill="#1E53C0" d="M148.19 57.7117C148.19 58.9192 147.21 59.8978 146 59.8978C144.79 59.8978 143.81 58.9192 143.81 57.7117C143.81 56.5041 144.79 55.5255 146 55.5255C147.21 55.5255 148.19 56.5041 148.19 57.7117Z"/><path fill="#1E53C0" d="M177.76 57.7117C177.76 58.9192 176.78 59.8978 175.57 59.8978C174.361 59.8978 173.381 58.9192 173.381 57.7117C173.381 56.5041 174.361 55.5255 175.57 55.5255C176.78 55.5255 177.76 56.5041 177.76 57.7117Z"/><path fill="#1E53C0" d="M205.12 59.8978C206.329 59.8978 207.31 58.919 207.31 57.7117C207.31 56.5043 206.329 55.5255 205.12 55.5255C203.911 55.5255 202.93 56.5043 202.93 57.7117C202.93 58.919 203.911 59.8978 205.12 59.8978Z"/><path fill="#1E53C0" d="M234.69 59.8978C235.9 59.8978 236.88 58.919 236.88 57.7117C236.88 56.5043 235.9 55.5255 234.69 55.5255C233.481 55.5255 232.501 56.5043 232.501 57.7117C232.501 58.919 233.481 59.8978 234.69 59.8978Z"/><path fill="#1E53C0" d="M266.43 57.7117C266.43 58.9192 265.449 59.8978 264.24 59.8978C263.03 59.8978 262.05 58.9192 262.05 57.7117C262.05 56.5041 263.03 55.5255 264.24 55.5255C265.449 55.5255 266.43 56.5041 266.43 57.7117Z"/><path fill="#1E53C0" d="M293.81 59.8978C295.02 59.8978 296 58.919 296 57.7117C296 56.5043 295.02 55.5255 293.81 55.5255C292.601 55.5255 291.621 56.5043 291.621 57.7117C291.621 58.919 292.601 59.8978 293.81 59.8978Z"/><path fill="#1E53C0" d="M0.400111 87.4848C0.400111 88.6924 -0.580009 89.671 -1.78952 89.671C-3.01988 89.671 -4 88.6924 -4 87.4848C-4 86.2772 -3.01988 85.2987 -1.81037 85.2987C-0.600862 85.2778 0.400111 86.2564 0.400111 87.4848Z"/><path fill="#1E53C0" d="M27.76 89.671C28.9693 89.671 29.9497 88.6922 29.9497 87.4848C29.9497 86.2775 28.9693 85.2987 27.76 85.2987C26.5507 85.2987 25.5704 86.2775 25.5704 87.4848C25.5704 88.6922 26.5507 89.671 27.76 89.671Z"/><path fill="#1E53C0" d="M57.3096 89.671C58.5189 89.671 59.4993 88.6922 59.4993 87.4848C59.4993 86.2775 58.5189 85.2987 57.3096 85.2987C56.1003 85.2987 55.12 86.2775 55.12 87.4848C55.12 88.6922 56.1003 89.671 57.3096 89.671Z"/><path fill="#1E53C0" d="M89.0697 87.4848C89.0697 88.6924 88.0895 89.671 86.88 89.671C85.6705 89.671 84.6904 88.6924 84.6904 87.4848C84.6904 86.2772 85.6705 85.2987 86.88 85.2987C88.0895 85.2778 89.0697 86.2564 89.0697 87.4848Z"/><path fill="#1E53C0" d="M116.43 89.671C117.639 89.671 118.619 88.6922 118.619 87.4848C118.619 86.2775 117.639 85.2987 116.43 85.2987C115.22 85.2987 114.24 86.2775 114.24 87.4848C114.24 88.6922 115.22 89.671 116.43 89.671Z"/><path fill="#1E53C0" d="M148.19 87.4848C148.19 88.6924 147.21 89.671 146 89.671C144.79 89.671 143.81 88.6924 143.81 87.4848C143.81 86.2772 144.79 85.2987 146 85.2987C147.21 85.2778 148.19 86.2564 148.19 87.4848Z"/><path fill="#1E53C0" d="M177.76 87.4848C177.76 88.6924 176.78 89.671 175.57 89.671C174.361 89.671 173.381 88.6924 173.381 87.4848C173.381 86.2772 174.361 85.2987 175.57 85.2987C176.78 85.2778 177.76 86.2564 177.76 87.4848Z"/><path fill="#1E53C0" d="M205.12 89.671C206.329 89.671 207.31 88.6922 207.31 87.4848C207.31 86.2775 206.329 85.2987 205.12 85.2987C203.911 85.2987 202.93 86.2775 202.93 87.4848C202.93 88.6922 203.911 89.671 205.12 89.671Z"/><path fill="#1E53C0" d="M234.69 89.671C235.9 89.671 236.88 88.6922 236.88 87.4848C236.88 86.2775 235.9 85.2987 234.69 85.2987C233.481 85.2987 232.501 86.2775 232.501 87.4848C232.501 88.6922 233.481 89.671 234.69 89.671Z"/><path fill="#1E53C0" d="M266.43 87.4848C266.43 88.6924 265.449 89.671 264.24 89.671C263.03 89.671 262.05 88.6924 262.05 87.4848C262.05 86.2772 263.03 85.2987 264.24 85.2987C265.449 85.2778 266.43 86.2564 266.43 87.4848Z"/><path fill="#1E53C0" d="M293.81 89.671C295.02 89.671 296 88.6922 296 87.4848C296 86.2775 295.02 85.2987 293.81 85.2987C292.601 85.2987 291.621 86.2775 291.621 87.4848C291.621 88.6922 292.601 89.671 293.81 89.671Z"/><path fill="#1E53C0" d="M0.400111 117.237C0.400111 118.445 -0.580009 119.423 -1.78952 119.423C-3.01988 119.423 -4 118.445 -4 117.237C-4 116.03 -3.01988 115.051 -1.81037 115.051C-0.600862 115.051 0.400111 116.03 0.400111 117.237Z"/><path fill="#1E53C0" d="M27.76 119.423C28.9693 119.423 29.9497 118.445 29.9497 117.237C29.9497 116.03 28.9693 115.051 27.76 115.051C26.5507 115.051 25.5704 116.03 25.5704 117.237C25.5704 118.445 26.5507 119.423 27.76 119.423Z"/><path fill="#1E53C0" d="M57.3096 119.423C58.5189 119.423 59.4993 118.445 59.4993 117.237C59.4993 116.03 58.5189 115.051 57.3096 115.051C56.1003 115.051 55.12 116.03 55.12 117.237C55.12 118.445 56.1003 119.423 57.3096 119.423Z"/><path fill="#1E53C0" d="M89.0697 117.237C89.0697 118.445 88.0895 119.423 86.88 119.423C85.6705 119.423 84.6904 118.445 84.6904 117.237C84.6904 116.03 85.6705 115.051 86.88 115.051C88.0895 115.051 89.0697 116.03 89.0697 117.237Z"/><path fill="#1E53C0" d="M116.43 119.423C117.639 119.423 118.619 118.445 118.619 117.237C118.619 116.03 117.639 115.051 116.43 115.051C115.22 115.051 114.24 116.03 114.24 117.237C114.24 118.445 115.22 119.423 116.43 119.423Z"/><path fill="#1E53C0" d="M148.19 117.237C148.19 118.445 147.21 119.423 146 119.423C144.79 119.423 143.81 118.445 143.81 117.237C143.81 116.03 144.79 115.051 146 115.051C147.21 115.051 148.19 116.03 148.19 117.237Z"/><path fill="#1E53C0" d="M177.76 117.237C177.76 118.445 176.78 119.423 175.57 119.423C174.361 119.423 173.381 118.445 173.381 117.237C173.381 116.03 174.361 115.051 175.57 115.051C176.78 115.051 177.76 116.03 177.76 117.237Z"/><path fill="#1E53C0" d="M205.12 119.423C206.329 119.423 207.31 118.445 207.31 117.237C207.31 116.03 206.329 115.051 205.12 115.051C203.911 115.051 202.93 116.03 202.93 117.237C202.93 118.445 203.911 119.423 205.12 119.423Z"/><path fill="#1E53C0" d="M234.69 119.423C235.9 119.423 236.88 118.445 236.88 117.237C236.88 116.03 235.9 115.051 234.69 115.051C233.481 115.051 232.501 116.03 232.501 117.237C232.501 118.445 233.481 119.423 234.69 119.423Z"/><path fill="#1E53C0" d="M266.43 117.237C266.43 118.445 265.449 119.423 264.24 119.423C263.03 119.423 262.05 118.445 262.05 117.237C262.05 116.03 263.03 115.051 264.24 115.051C265.449 115.051 266.43 116.03 266.43 117.237Z"/><path fill="#1E53C0" d="M293.81 119.423C295.02 119.423 296 118.445 296 117.237C296 116.03 295.02 115.051 293.81 115.051C292.601 115.051 291.621 116.03 291.621 117.237C291.621 118.445 292.601 119.423 293.81 119.423Z"/><path fill="#1E53C0" d="M0.400111 146.99C0.400111 148.197 -0.580009 149.176 -1.78952 149.176C-3.01988 149.197 -4 148.218 -4 146.99C-4 145.782 -3.01988 144.803 -1.81037 144.803C-0.600862 144.803 0.400111 145.782 0.400111 146.99Z"/><path fill="#1E53C0" d="M27.76 149.176C28.9693 149.176 29.9497 148.197 29.9497 146.99C29.9497 145.782 28.9693 144.803 27.76 144.803C26.5507 144.803 25.5704 145.782 25.5704 146.99C25.5704 148.197 26.5507 149.176 27.76 149.176Z"/><path fill="#1E53C0" d="M57.3096 149.176C58.5189 149.176 59.4993 148.197 59.4993 146.99C59.4993 145.782 58.5189 144.803 57.3096 144.803C56.1003 144.803 55.12 145.782 55.12 146.99C55.12 148.197 56.1003 149.176 57.3096 149.176Z"/><path fill="#1E53C0" d="M89.0697 146.99C89.0697 148.197 88.0895 149.176 86.88 149.176C85.6705 149.176 84.6904 148.197 84.6904 146.99C84.6904 145.782 85.6705 144.803 86.88 144.803C88.0895 144.803 89.0697 145.782 89.0697 146.99Z"/><path fill="#1E53C0" d="M116.43 149.176C117.639 149.176 118.619 148.197 118.619 146.99C118.619 145.782 117.639 144.803 116.43 144.803C115.22 144.803 114.24 145.782 114.24 146.99C114.24 148.197 115.22 149.176 116.43 149.176Z"/><path fill="#1E53C0" d="M148.19 146.99C148.19 148.197 147.21 149.176 146 149.176C144.79 149.176 143.81 148.197 143.81 146.99C143.81 145.782 144.79 144.803 146 144.803C147.21 144.803 148.19 145.782 148.19 146.99Z"/><path fill="#1E53C0" d="M177.76 146.99C177.76 148.197 176.78 149.176 175.57 149.176C174.361 149.176 173.381 148.197 173.381 146.99C173.381 145.782 174.361 144.803 175.57 144.803C176.78 144.803 177.76 145.782 177.76 146.99Z"/><path fill="#1E53C0" d="M205.12 149.176C206.329 149.176 207.31 148.197 207.31 146.99C207.31 145.782 206.329 144.803 205.12 144.803C203.911 144.803 202.93 145.782 202.93 146.99C202.93 148.197 203.911 149.176 205.12 149.176Z"/><path fill="#1E53C0" d="M234.69 149.176C235.9 149.176 236.88 148.197 236.88 146.99C236.88 145.782 235.9 144.803 234.69 144.803C233.481 144.803 232.501 145.782 232.501 146.99C232.501 148.197 233.481 149.176 234.69 149.176Z"/><path fill="#1E53C0" d="M266.43 146.99C266.43 148.197 265.449 149.176 264.24 149.176C263.03 149.176 262.05 148.197 262.05 146.99C262.05 145.782 263.03 144.803 264.24 144.803C265.449 144.803 266.43 145.782 266.43 146.99Z"/><path fill="#1E53C0" d="M293.81 149.176C295.02 149.176 296 148.197 296 146.99C296 145.782 295.02 144.803 293.81 144.803C292.601 144.803 291.621 145.782 291.621 146.99C291.621 148.197 292.601 149.176 293.81 149.176Z"/><path fill="#1E53C0" d="M0.400111 176.763C0.400111 177.97 -0.580009 178.949 -1.78952 178.949C-3.01988 178.949 -4 177.97 -4 176.763C-4 175.555 -3.01988 174.577 -1.81037 174.577C-0.600862 174.577 0.400111 175.555 0.400111 176.763Z"/><path fill="#1E53C0" d="M27.76 178.949C28.9693 178.949 29.9497 177.97 29.9497 176.763C29.9497 175.555 28.9693 174.577 27.76 174.577C26.5507 174.577 25.5704 175.555 25.5704 176.763C25.5704 177.97 26.5507 178.949 27.76 178.949Z"/><path fill="#1E53C0" d="M57.3096 178.949C58.5189 178.949 59.4993 177.97 59.4993 176.763C59.4993 175.555 58.5189 174.577 57.3096 174.577C56.1003 174.577 55.12 175.555 55.12 176.763C55.12 177.97 56.1003 178.949 57.3096 178.949Z"/><path fill="#1E53C0" d="M89.0697 176.763C89.0697 177.97 88.0895 178.949 86.88 178.949C85.6705 178.949 84.6904 177.97 84.6904 176.763C84.6904 175.555 85.6705 174.577 86.88 174.577C88.0895 174.577 89.0697 175.555 89.0697 176.763Z"/><path fill="#1E53C0" d="M116.43 178.949C117.639 178.949 118.619 177.97 118.619 176.763C118.619 175.555 117.639 174.577 116.43 174.577C115.22 174.577 114.24 175.555 114.24 176.763C114.24 177.97 115.22 178.949 116.43 178.949Z"/><path fill="#1E53C0" d="M148.19 176.763C148.19 177.97 147.21 178.949 146 178.949C144.79 178.949 143.81 177.97 143.81 176.763C143.81 175.555 144.79 174.577 146 174.577C147.21 174.577 148.19 175.555 148.19 176.763Z"/><path fill="#1E53C0" d="M177.76 176.763C177.76 177.97 176.78 178.949 175.57 178.949C174.361 178.949 173.381 177.97 173.381 176.763C173.381 175.555 174.361 174.577 175.57 174.577C176.78 174.577 177.76 175.555 177.76 176.763Z"/><path fill="#1E53C0" d="M205.12 178.949C206.329 178.949 207.31 177.97 207.31 176.763C207.31 175.555 206.329 174.577 205.12 174.577C203.911 174.577 202.93 175.555 202.93 176.763C202.93 177.97 203.911 178.949 205.12 178.949Z"/><path fill="#1E53C0" d="M234.69 178.949C235.9 178.949 236.88 177.97 236.88 176.763C236.88 175.555 235.9 174.577 234.69 174.577C233.481 174.577 232.501 175.555 232.501 176.763C232.501 177.97 233.481 178.949 234.69 178.949Z"/><path fill="#1E53C0" d="M266.43 176.763C266.43 177.97 265.449 178.949 264.24 178.949C263.03 178.949 262.05 177.97 262.05 176.763C262.05 175.555 263.03 174.577 264.24 174.577C265.449 174.577 266.43 175.555 266.43 176.763Z"/><path fill="#1E53C0" d="M293.81 178.949C295.02 178.949 296 177.97 296 176.763C296 175.555 295.02 174.577 293.81 174.577C292.601 174.577 291.621 175.555 291.621 176.763C291.621 177.97 292.601 178.949 293.81 178.949Z"/><path fill="#1E53C0" d="M0.400101 206.515C0.400101 207.723 -0.580019 208.701 -1.78953 208.701C-2.99904 208.701 -3.97916 207.723 -3.97916 206.515C-3.97916 205.308 -2.99904 204.329 -1.78953 204.329C-0.600872 204.329 0.400101 205.308 0.400101 206.515Z"/><path fill="#1E53C0" d="M27.76 208.701C28.9693 208.701 29.9497 207.723 29.9497 206.515C29.9497 205.308 28.9693 204.329 27.76 204.329C26.5507 204.329 25.5704 205.308 25.5704 206.515C25.5704 207.723 26.5507 208.701 27.76 208.701Z"/><path fill="#1E53C0" d="M57.3096 208.701C58.5189 208.701 59.4993 207.723 59.4993 206.515C59.4993 205.308 58.5189 204.329 57.3096 204.329C56.1003 204.329 55.12 205.308 55.12 206.515C55.12 207.723 56.1003 208.701 57.3096 208.701Z"/><path fill="#1E53C0" d="M89.0697 206.515C89.0697 207.723 88.0895 208.701 86.88 208.701C85.6705 208.701 84.6904 207.723 84.6904 206.515C84.6904 205.308 85.6705 204.329 86.88 204.329C88.0895 204.329 89.0697 205.308 89.0697 206.515Z"/><path fill="#1E53C0" d="M116.43 208.701C117.639 208.701 118.619 207.723 118.619 206.515C118.619 205.308 117.639 204.329 116.43 204.329C115.22 204.329 114.24 205.308 114.24 206.515C114.24 207.723 115.22 208.701 116.43 208.701Z"/><path fill="#1E53C0" d="M148.19 206.515C148.19 207.723 147.21 208.701 146 208.701C144.79 208.701 143.81 207.723 143.81 206.515C143.81 205.308 144.79 204.329 146 204.329C147.21 204.329 148.19 205.308 148.19 206.515Z"/><path fill="#1E53C0" d="M177.76 206.515C177.76 207.723 176.78 208.701 175.57 208.701C174.361 208.701 173.381 207.723 173.381 206.515C173.381 205.308 174.361 204.329 175.57 204.329C176.78 204.329 177.76 205.308 177.76 206.515Z"/><path fill="#1E53C0" d="M205.12 208.701C206.329 208.701 207.31 207.723 207.31 206.515C207.31 205.308 206.329 204.329 205.12 204.329C203.911 204.329 202.93 205.308 202.93 206.515C202.93 207.723 203.911 208.701 205.12 208.701Z"/><path fill="#1E53C0" d="M234.69 208.701C235.9 208.701 236.88 207.723 236.88 206.515C236.88 205.308 235.9 204.329 234.69 204.329C233.481 204.329 232.501 205.308 232.501 206.515C232.501 207.723 233.481 208.701 234.69 208.701Z"/><path fill="#1E53C0" d="M266.43 206.515C266.43 207.723 265.449 208.701 264.24 208.701C263.03 208.701 262.05 207.723 262.05 206.515C262.05 205.308 263.03 204.329 264.24 204.329C265.449 204.329 266.43 205.308 266.43 206.515Z"/><path fill="#1E53C0" d="M293.81 208.701C295.02 208.701 296 207.723 296 206.515C296 205.308 295.02 204.329 293.81 204.329C292.601 204.329 291.621 205.308 291.621 206.515C291.621 207.723 292.601 208.701 293.81 208.701Z"/><path fill="#1E53C0" d="M0.400101 236.288C0.400101 237.496 -0.580019 238.474 -1.78953 238.474C-2.99904 238.474 -3.97916 237.496 -3.97916 236.288C-3.97916 235.081 -2.99904 234.102 -1.78953 234.102C-0.600872 234.081 0.400101 235.081 0.400101 236.288Z"/><path fill="#1E53C0" d="M27.76 238.474C28.9693 238.474 29.9497 237.496 29.9497 236.288C29.9497 235.081 28.9693 234.102 27.76 234.102C26.5507 234.102 25.5704 235.081 25.5704 236.288C25.5704 237.496 26.5507 238.474 27.76 238.474Z"/><path fill="#1E53C0" d="M57.3096 238.474C58.5189 238.474 59.4993 237.496 59.4993 236.288C59.4993 235.081 58.5189 234.102 57.3096 234.102C56.1003 234.102 55.12 235.081 55.12 236.288C55.12 237.496 56.1003 238.474 57.3096 238.474Z"/><path fill="#1E53C0" d="M89.0697 236.288C89.0697 237.496 88.0895 238.474 86.88 238.474C85.6705 238.474 84.6904 237.496 84.6904 236.288C84.6904 235.081 85.6705 234.102 86.88 234.102C88.0895 234.081 89.0697 235.081 89.0697 236.288Z"/><path fill="#1E53C0" d="M116.43 238.474C117.639 238.474 118.619 237.496 118.619 236.288C118.619 235.081 117.639 234.102 116.43 234.102C115.22 234.102 114.24 235.081 114.24 236.288C114.24 237.496 115.22 238.474 116.43 238.474Z"/><path fill="#1E53C0" d="M148.19 236.288C148.19 237.496 147.21 238.474 146 238.474C144.79 238.474 143.81 237.496 143.81 236.288C143.81 235.081 144.79 234.102 146 234.102C147.21 234.081 148.19 235.081 148.19 236.288Z"/><path fill="#1E53C0" d="M177.76 236.288C177.76 237.496 176.78 238.474 175.57 238.474C174.361 238.474 173.381 237.496 173.381 236.288C173.381 235.081 174.361 234.102 175.57 234.102C176.78 234.081 177.76 235.081 177.76 236.288Z"/><path fill="#1E53C0" d="M205.12 238.474C206.329 238.474 207.31 237.496 207.31 236.288C207.31 235.081 206.329 234.102 205.12 234.102C203.911 234.102 202.93 235.081 202.93 236.288C202.93 237.496 203.911 238.474 205.12 238.474Z"/><path fill="#1E53C0" d="M234.69 238.474C235.9 238.474 236.88 237.496 236.88 236.288C236.88 235.081 235.9 234.102 234.69 234.102C233.481 234.102 232.501 235.081 232.501 236.288C232.501 237.496 233.481 238.474 234.69 238.474Z"/><path fill="#1E53C0" d="M266.43 236.288C266.43 237.496 265.449 238.474 264.24 238.474C263.03 238.474 262.05 237.496 262.05 236.288C262.05 235.081 263.03 234.102 264.24 234.102C265.449 234.081 266.43 235.081 266.43 236.288Z"/><path fill="#1E53C0" d="M293.81 238.474C295.02 238.474 296 237.496 296 236.288C296 235.081 295.02 234.102 293.81 234.102C292.601 234.102 291.621 235.081 291.621 236.288C291.621 237.496 292.601 238.474 293.81 238.474Z"/><path fill="#1E53C0" d="M0.400101 266.041C0.400101 267.248 -0.580019 268.227 -1.78953 268.227C-2.99904 268.227 -3.97916 267.248 -3.97916 266.041C-3.97916 264.833 -2.99904 263.854 -1.78953 263.854C-0.600872 263.854 0.400101 264.833 0.400101 266.041Z"/><path fill="#1E53C0" d="M27.76 268.227C28.9693 268.227 29.9497 267.248 29.9497 266.041C29.9497 264.833 28.9693 263.854 27.76 263.854C26.5507 263.854 25.5704 264.833 25.5704 266.041C25.5704 267.248 26.5507 268.227 27.76 268.227Z"/><path fill="#1E53C0" d="M57.3096 268.227C58.5189 268.227 59.4993 267.248 59.4993 266.041C59.4993 264.833 58.5189 263.854 57.3096 263.854C56.1003 263.854 55.12 264.833 55.12 266.041C55.12 267.248 56.1003 268.227 57.3096 268.227Z"/><path fill="#1E53C0" d="M89.0697 266.041C89.0697 267.248 88.0895 268.227 86.88 268.227C85.6705 268.227 84.6904 267.248 84.6904 266.041C84.6904 264.833 85.6705 263.854 86.88 263.854C88.0895 263.854 89.0697 264.833 89.0697 266.041Z"/><path fill="#1E53C0" d="M116.43 268.227C117.639 268.227 118.619 267.248 118.619 266.041C118.619 264.833 117.639 263.854 116.43 263.854C115.22 263.854 114.24 264.833 114.24 266.041C114.24 267.248 115.22 268.227 116.43 268.227Z"/><path fill="#1E53C0" d="M148.19 266.041C148.19 267.248 147.21 268.227 146 268.227C144.79 268.227 143.81 267.248 143.81 266.041C143.81 264.833 144.79 263.854 146 263.854C147.21 263.854 148.19 264.833 148.19 266.041Z"/><path fill="#1E53C0" d="M177.76 266.041C177.76 267.248 176.78 268.227 175.57 268.227C174.361 268.227 173.381 267.248 173.381 266.041C173.381 264.833 174.361 263.854 175.57 263.854C176.78 263.854 177.76 264.833 177.76 266.041Z"/><path fill="#1E53C0" d="M205.12 268.227C206.329 268.227 207.31 267.248 207.31 266.041C207.31 264.833 206.329 263.854 205.12 263.854C203.911 263.854 202.93 264.833 202.93 266.041C202.93 267.248 203.911 268.227 205.12 268.227Z"/><path fill="#1E53C0" d="M234.69 268.227C235.9 268.227 236.88 267.248 236.88 266.041C236.88 264.833 235.9 263.854 234.69 263.854C233.481 263.854 232.501 264.833 232.501 266.041C232.501 267.248 233.481 268.227 234.69 268.227Z"/><path fill="#1E53C0" d="M266.43 266.041C266.43 267.248 265.449 268.227 264.24 268.227C263.03 268.227 262.05 267.248 262.05 266.041C262.05 264.833 263.03 263.854 264.24 263.854C265.449 263.854 266.43 264.833 266.43 266.041Z"/><path fill="#1E53C0" d="M293.81 268.227C295.02 268.227 296 267.248 296 266.041C296 264.833 295.02 263.854 293.81 263.854C292.601 263.854 291.621 264.833 291.621 266.041C291.621 267.248 292.601 268.227 293.81 268.227Z"/><path fill="#1E53C0" d="M0.400111 295.814C0.400111 297.022 -0.580009 298 -1.78952 298C-3.01988 298 -4 297.022 -4 295.814C-4 294.606 -3.01988 293.628 -1.81037 293.628C-0.600862 293.607 0.400111 294.586 0.400111 295.814Z"/><path fill="#1E53C0" d="M27.76 298C28.9693 298 29.9497 297.021 29.9497 295.814C29.9497 294.606 28.9693 293.628 27.76 293.628C26.5507 293.628 25.5704 294.606 25.5704 295.814C25.5704 297.021 26.5507 298 27.76 298Z"/><path fill="#1E53C0" d="M57.3096 298C58.5189 298 59.4993 297.021 59.4993 295.814C59.4993 294.606 58.5189 293.628 57.3096 293.628C56.1003 293.628 55.12 294.606 55.12 295.814C55.12 297.021 56.1003 298 57.3096 298Z"/><path fill="#1E53C0" d="M89.0697 295.814C89.0697 297.022 88.0895 298 86.88 298C85.6705 298 84.6904 297.022 84.6904 295.814C84.6904 294.606 85.6705 293.628 86.88 293.628C88.0895 293.607 89.0697 294.586 89.0697 295.814Z"/><path fill="#1E53C0" d="M116.43 298C117.639 298 118.619 297.021 118.619 295.814C118.619 294.606 117.639 293.628 116.43 293.628C115.22 293.628 114.24 294.606 114.24 295.814C114.24 297.021 115.22 298 116.43 298Z"/><path fill="#1E53C0" d="M148.19 295.814C148.19 297.022 147.21 298 146 298C144.79 298 143.81 297.022 143.81 295.814C143.81 294.606 144.79 293.628 146 293.628C147.21 293.607 148.19 294.586 148.19 295.814Z"/><path fill="#1E53C0" d="M177.76 295.814C177.76 297.022 176.78 298 175.57 298C174.361 298 173.381 297.022 173.381 295.814C173.381 294.606 174.361 293.628 175.57 293.628C176.78 293.607 177.76 294.586 177.76 295.814Z"/><path fill="#1E53C0" d="M205.12 298C206.329 298 207.31 297.021 207.31 295.814C207.31 294.606 206.329 293.628 205.12 293.628C203.911 293.628 202.93 294.606 202.93 295.814C202.93 297.021 203.911 298 205.12 298Z"/><path fill="#1E53C0" d="M234.69 298C235.9 298 236.88 297.021 236.88 295.814C236.88 294.606 235.9 293.628 234.69 293.628C233.481 293.628 232.501 294.606 232.501 295.814C232.501 297.021 233.481 298 234.69 298Z"/><path fill="#1E53C0" d="M266.43 295.814C266.43 297.022 265.449 298 264.24 298C263.03 298 262.05 297.022 262.05 295.814C262.05 294.606 263.03 293.628 264.24 293.628C265.449 293.607 266.43 294.586 266.43 295.814Z"/><path fill="#1E53C0" d="M293.81 298C295.02 298 296 297.021 296 295.814C296 294.606 295.02 293.628 293.81 293.628C292.601 293.628 291.621 294.606 291.621 295.814C291.621 297.021 292.601 298 293.81 298Z"/></g></g><defs><linearGradient id="paint0_linear_12_174" x1="150" x2="150" y1="0" y2="302" gradientUnits="userSpaceOnUse"><stop stop-color="transparent"/><stop offset="1" stop-color="#fff" stop-opacity="0"/></linearGradient><clipPath id="clip0_12_174"><rect width="300" height="302" fill="#fff"/></clipPath><clipPath id="clip1_12_174"><rect width="300" height="302" fill="#fff" transform="translate(-4 -4)"/></clipPath></defs></svg>