<svg xmlns="http://www.w3.org/2000/svg" width="85" height="85" fill="none" viewBox="0 0 85 85"><rect width="84" height="84" x=".409" y=".944" fill="#1E53C0" rx="42"/><path stroke="#fff" stroke-linecap="round" stroke-linejoin="round" stroke-width="3" d="M42.4087 51.8819C46.2056 51.8819 49.2837 48.8039 49.2837 45.0069C49.2837 41.2099 46.2056 38.1319 42.4087 38.1319C38.6117 38.1319 35.5337 41.2099 35.5337 45.0069C35.5337 48.8039 38.6117 51.8819 42.4087 51.8819Z"/><path stroke="#fff" stroke-linecap="round" stroke-linejoin="round" stroke-width="3" d="M54.0962 40.8819C55.6976 40.8792 57.2775 41.2508 58.7099 41.967C60.1423 42.6832 61.3875 43.7242 62.3462 45.0069"/><path stroke="#fff" stroke-linecap="round" stroke-linejoin="round" stroke-width="3" d="M22.4712 45.0069C23.4299 43.7242 24.6751 42.6832 26.1075 41.967C27.5398 41.2508 29.1198 40.8792 30.7212 40.8819"/><path stroke="#fff" stroke-linecap="round" stroke-linejoin="round" stroke-width="3" d="M32.5087 58.0694C33.4141 56.215 34.8222 54.6522 36.5726 53.5591C38.3229 52.4659 40.345 51.8863 42.4087 51.8863C44.4723 51.8863 46.4945 52.4659 48.2448 53.5591C49.9951 54.6522 51.4032 56.215 52.3087 58.0694"/><path stroke="#fff" stroke-linecap="round" stroke-linejoin="round" stroke-width="3" d="M30.7212 40.8819C29.6773 40.883 28.6546 40.5869 27.7727 40.0284C26.8908 39.4698 26.1861 38.6718 25.7409 37.7276C25.2957 36.7834 25.1284 35.732 25.2585 34.6963C25.3886 33.6605 25.8108 32.6832 26.4758 31.8785C27.1407 31.0738 28.0209 30.4749 29.0136 30.1519C30.0063 29.8288 31.0703 29.795 32.0815 30.0542C33.0927 30.3135 34.0093 30.8552 34.724 31.616C35.4388 32.3768 35.9223 33.3253 36.118 34.3506"/><path stroke="#fff" stroke-linecap="round" stroke-linejoin="round" stroke-width="3" d="M48.6993 34.3506C48.8951 33.3253 49.3786 32.3768 50.0933 31.616C50.8081 30.8552 51.7246 30.3135 52.7358 30.0542C53.747 29.795 54.8111 29.8288 55.8038 30.1519C56.7964 30.4749 57.6767 31.0738 58.3416 31.8785C59.0066 32.6832 59.4288 33.6605 59.5589 34.6963C59.689 35.732 59.5217 36.7834 59.0765 37.7276C58.6313 38.6718 57.9265 39.4698 57.0446 40.0284C56.1628 40.5869 55.1401 40.883 54.0962 40.8819"/></svg>