<svg xmlns="http://www.w3.org/2000/svg" width="735" height="777" fill="none" viewBox="0 0 735 777"><rect width="478" height="757" x="542.991" y="757" fill="#A2C2FE" rx="239" transform="rotate(-180 542.991 757)"/><path fill="#FFD600" stroke="#1E53C0" stroke-linecap="round" stroke-miterlimit="10" stroke-width="1.374" d="M531.828 361.565L683.777 398.141C685.907 398.516 688.11 398.558 690.262 398.266C692.413 397.973 694.469 397.352 696.313 396.436C698.157 395.521 699.752 394.33 701.008 392.931C702.263 391.533 703.153 389.954 703.628 388.286L733.009 285.123C733.97 281.754 733.182 278.224 730.819 275.31C728.457 272.396 724.712 270.335 720.409 269.582L564.292 249.47C558.738 248.755 553.045 249.731 548.38 252.197C543.716 254.664 540.434 258.434 539.209 262.735L516.799 341.353C515.601 345.584 516.482 350.013 519.267 353.759C522.052 357.504 526.537 360.291 531.828 361.565Z"/><path stroke="#1E53C0" stroke-linecap="round" stroke-miterlimit="10" stroke-width="1.374" d="M480.914 596.771C501.502 568.221 538.134 508.764 547.885 435.796"/><path stroke="#1E53C0" stroke-linecap="round" stroke-miterlimit="10" stroke-width="1.374" d="M206.317 571.678C197.361 550.917 189.56 526.884 188.381 504.276"/><path fill="#FFD550" d="M176.763 582.72C176.763 582.72 172.197 549.115 145.665 526.298L115.024 544.819C115.024 544.819 156.339 552.754 176.763 582.72Z"/><path stroke="#1E53C0" d="M109.072 602.429C83.2432 603.879 60.5662 612.678 44.7797 625.708C28.9923 638.739 20.1253 655.97 21.8044 674.308C23.4835 692.646 35.3993 708.711 53.3994 719.846C71.3986 730.98 95.4469 737.158 121.276 735.709C147.104 734.259 169.781 725.46 185.568 712.43C201.355 699.399 210.222 682.167 208.543 663.83C206.864 645.492 194.948 629.427 176.948 618.292C158.949 607.158 134.9 600.98 109.072 602.429Z"/><path fill="#F3ABAA" d="M150.93 433.848C150.93 433.848 132.012 434.762 123.208 426.873C118.7 422.841 107.606 414.331 93.57 409.449C79.5336 404.567 94.8896 424.304 94.3524 425.904C93.6517 428.043 67.7159 414.175 63.8156 418.545C59.9153 422.915 55.7464 434.771 73.2978 446.674C90.8491 458.576 145.932 475.726 161.276 474.327C176.621 472.928 170.467 445.12 150.93 433.848Z"/><path stroke="#0D0F44" stroke-linecap="round" stroke-miterlimit="10" stroke-width=".916" d="M96.8403 427.157L107.292 434.881"/><path fill="#F3ABAA" d="M543.739 340.585C543.739 340.585 547.756 334.003 548.41 321.9C549.018 310.372 552.638 288.707 561.548 288.707C565.763 288.707 574.708 291.623 573.973 312.246C573.973 312.246 575.958 320.611 594.338 305.043C612.719 289.474 619.947 290.471 625.389 293.753C635.034 299.585 650.741 314.577 637.568 336.362C624.396 358.146 580.173 375.671 580.173 375.671L543.739 340.585Z"/><path stroke="#0D0F44" stroke-linecap="round" stroke-miterlimit="10" stroke-width=".916" d="M624.84 297.566C624.84 297.566 611.107 310.592 603.307 314.021"/><path stroke="#0D0F44" stroke-linecap="round" stroke-miterlimit="10" stroke-width=".916" d="M630.575 305.802C630.575 305.802 616.854 318.829 609.042 322.257"/><path stroke="#0D0F44" stroke-linecap="round" stroke-miterlimit="10" stroke-width=".916" d="M635.605 315.62C635.605 315.62 621.884 328.628 614.072 332.075"/><path stroke="#0D0F44" stroke-linecap="round" stroke-miterlimit="10" stroke-width=".916" d="M635.605 328.208C631.291 332.264 626.711 336.142 621.884 339.827"/><path fill="#0D0F44" d="M516.045 647.461L388.339 576.403C384.402 574.212 379.893 572.733 375.138 572.072C370.382 571.411 365.498 571.585 360.839 572.582L162.32 614.88C158.894 615.606 155.772 617.024 153.265 618.991C150.759 620.959 148.956 623.407 148.037 626.091C147.119 628.775 147.116 631.601 148.031 634.286C148.945 636.971 150.744 639.421 153.247 641.391L315.658 769.785C321.058 774.066 328.297 776.624 335.971 776.962C343.644 777.3 351.204 775.393 357.184 771.613L516.991 670.205C519.173 668.815 520.916 667.049 522.083 665.044C523.25 663.04 523.81 660.851 523.718 658.649C523.627 656.448 522.886 654.292 521.555 652.352C520.224 650.411 518.338 648.737 516.045 647.461Z"/><path fill="#0D0F44" d="M148.201 612.477L147.337 632.771L160.019 641.227L148.201 612.477Z"/><path fill="#0D0F44" d="M523.714 645.879V661.118L504.189 669.099L523.714 645.879Z"/><path fill="#22319E" d="M516.04 634.261L388.335 563.193C384.398 561.003 379.889 559.523 375.133 558.863C370.377 558.202 365.493 558.376 360.834 559.372L162.316 601.671C158.89 602.397 155.767 603.815 153.26 605.782C150.754 607.749 148.951 610.198 148.033 612.882C147.114 615.566 147.112 618.392 148.026 621.076C148.94 623.761 150.739 626.211 153.242 628.181L315.654 756.576C321.061 760.85 328.304 763.4 335.978 763.729C343.651 764.058 351.207 762.144 357.179 758.358L516.986 656.996C519.166 655.605 520.907 653.84 522.073 651.836C523.239 649.832 523.797 647.645 523.706 645.445C523.614 643.244 522.875 641.09 521.545 639.15C520.216 637.21 518.332 635.537 516.04 634.261Z"/><path fill="#DADEEB" d="M184.893 630.933L243.28 677.07L245.219 670.671C248.196 660.332 257.492 627.495 265.596 593.141L192.541 608.682C189.663 609.288 187.039 610.475 184.931 612.125C182.823 613.775 181.306 615.83 180.531 618.083C179.757 620.336 179.752 622.709 180.517 624.964C181.283 627.219 182.791 629.277 184.893 630.933Z"/><path fill="#DADEEB" d="M413.261 701.132L409.559 706.196L490.076 655.122C491.906 653.956 493.367 652.474 494.344 650.793C495.322 649.112 495.79 647.277 495.712 645.431C495.634 643.585 495.012 641.778 493.895 640.151C492.777 638.524 491.194 637.121 489.27 636.052L451.622 615.109C442.974 644.814 430.107 673.668 413.261 701.132Z"/><path fill="#273B4A" d="M326.69 211.295C326.69 211.295 290.116 206.478 283.191 259.371C277.878 299.96 272.95 306.277 271.432 310.062C269.914 313.846 237.252 342.661 246.617 372.718C246.617 372.718 261.19 411.113 306.511 417.558C351.832 424.003 357.18 337.459 357.18 337.459C357.18 337.459 363.346 225.447 326.69 211.295Z"/><path fill="#22319E" d="M579.753 571.667C557.671 571.667 539.77 557.653 539.77 540.366C539.77 523.079 557.671 509.065 579.753 509.065C601.836 509.065 619.737 523.079 619.737 540.366C619.737 557.653 601.836 571.667 579.753 571.667Z"/><path fill="#fff" d="M565.575 539.773L580.977 555.313C581.236 555.58 581.583 555.787 581.981 555.91C582.379 556.033 582.812 556.068 583.234 556.012C583.656 555.955 584.049 555.809 584.372 555.589C584.695 555.369 584.935 555.084 585.064 554.765L593.858 533.904C593.995 533.586 594.018 533.246 593.925 532.919C593.832 532.592 593.626 532.292 593.33 532.05C593.033 531.809 592.658 531.636 592.244 531.55C591.831 531.464 591.395 531.469 590.985 531.563L566.801 536.847C566.422 536.924 566.073 537.074 565.787 537.284C565.502 537.493 565.288 537.756 565.166 538.047C565.044 538.339 565.017 538.649 565.089 538.951C565.16 539.252 565.327 539.535 565.575 539.773Z"/><path fill="#22319E" d="M11.8313 339.013L119.428 365.469C121.216 365.909 123.097 366.068 124.964 365.939C126.831 365.809 128.647 365.393 130.308 364.713C131.969 364.034 133.444 363.106 134.646 361.981C135.849 360.855 136.757 359.556 137.318 358.156L158.828 304.54C159.918 301.825 159.643 298.886 158.059 296.324C156.474 293.762 153.701 291.77 150.304 290.755L43.9562 258.942C41.8822 258.432 39.7 258.246 37.5344 258.396C35.3688 258.547 33.2622 259.029 31.3351 259.817C29.408 260.605 27.698 261.683 26.3031 262.988C24.9081 264.293 23.8555 265.801 23.2052 267.425L1.01788 322.76C-0.299942 326.038 0.0988464 329.591 2.12656 332.639C4.15425 335.687 7.64493 337.98 11.8313 339.013Z"/><path stroke="#fff" stroke-linecap="round" stroke-miterlimit="10" stroke-width="1.832" d="M61.4378 319.276L76.3033 324.002L95.2326 312.484L93.0372 300.051C92.9224 299.422 92.6004 298.828 92.1028 298.326C91.6052 297.824 90.9493 297.433 90.1996 297.19L55.961 286.293C55.6741 286.202 55.3618 286.173 55.0555 286.206C54.7492 286.24 54.4596 286.337 54.2159 286.486C53.9721 286.635 53.7828 286.831 53.6669 287.056C53.5509 287.281 53.5125 287.525 53.5555 287.765L58.6119 316.424C58.7275 317.05 59.0486 317.642 59.5439 318.142C60.0392 318.642 60.6918 319.033 61.4378 319.276V319.276Z"/><path stroke="#fff" stroke-linecap="round" stroke-miterlimit="10" stroke-width="1.832" d="M76.2072 324.058L88.4803 336.408C89.7298 337.661 92.3923 337.67 94.4359 336.408L106.043 329.333C108.087 328.089 108.729 326.06 107.491 324.808L95.2299 312.485L76.2072 324.058Z"/><path stroke="#fff" stroke-linecap="round" stroke-miterlimit="10" stroke-width="1.832" d="M54.2051 286.485L71.955 304.357"/><path stroke="#fff" stroke-linecap="round" stroke-miterlimit="10" stroke-width="1.832" d="M75.9276 313.545C72.316 313.545 69.3882 311.253 69.3882 308.425C69.3882 305.598 72.316 303.306 75.9276 303.306C79.5393 303.306 82.4671 305.598 82.4671 308.425C82.4671 311.253 79.5393 313.545 75.9276 313.545Z"/><path fill="#0D0F44" d="M243.257 677.071L321.169 738.667C325.706 742.253 331.782 744.391 338.219 744.666C344.657 744.942 350.995 743.335 356.003 740.157L409.556 706.196L413.258 701.132C430.105 673.668 442.972 644.814 451.619 615.109C469.345 555.295 466.449 509.496 466.449 509.496L279.06 509.697C279.772 527.23 273.221 560.89 265.572 593.142C257.468 627.496 248.173 660.333 245.195 670.672L243.257 677.071Z"/><path stroke="#DADEEB" stroke-linecap="round" stroke-miterlimit="10" stroke-width=".916" d="M393.823 575.799L377.03 580.827C377.03 580.827 376.528 622.522 314.626 729.443"/><path fill="#1E53C0" d="M376.798 317.704C376.798 317.704 427.012 319.935 445.696 348.429C468.619 383.168 496.143 378.944 534.574 343.072C535.993 341.743 537.964 340.848 540.142 340.544C542.321 340.239 544.566 340.546 546.485 341.409C560.731 347.808 590.334 363.924 576.554 381.997C558.688 405.418 504.644 454.372 458.611 451.575C458.611 451.575 466.867 492.365 466.353 509.496C466.353 509.496 438.035 537.506 367.515 536.299C296.994 535.093 278.964 509.697 278.964 509.697C278.964 509.697 278.193 467.783 275.869 456.904C275.869 456.904 229.463 484.064 161.184 474.346C161.184 474.346 170.293 449.728 150.838 433.849C150.838 433.849 218.299 419.268 225.738 411.168C233.176 403.069 253.682 357.955 257.746 351.208C263.059 342.368 278.765 327.55 308.964 320.419C339.162 313.289 376.798 317.704 376.798 317.704Z"/><path stroke="#DADEEB" stroke-linecap="round" stroke-miterlimit="10" stroke-width=".916" d="M434.718 354.06C434.718 354.06 450.226 388.945 457.909 445.431"/><path stroke="#fff" stroke-linecap="round" stroke-miterlimit="10" stroke-width=".916" d="M324.751 375.662C324.751 375.662 311.303 410.893 301.806 431.365C298.716 438.026 296.044 443.124 294.389 444.937C287.651 452.324 275.974 456.904 275.974 456.904"/><path stroke="#fff" stroke-linecap="round" stroke-miterlimit="10" stroke-width=".916" d="M163.411 431.024C163.411 431.024 183.438 439.16 174.808 471.759"/><path stroke="#fff" stroke-linecap="round" stroke-miterlimit="10" stroke-width=".916" d="M529.284 347.908C529.284 347.908 554.355 357.671 566.488 375.662"/><path fill="#273B4A" d="M389.771 220.977C389.771 220.977 411.632 228.747 396.171 256.382L376.844 229.689L389.771 220.977Z"/><path fill="#F3ABAA" d="M319.333 275.286C319.333 275.286 330.52 319.77 330.52 323.381C330.52 326.992 361.232 332.696 378.492 321.552C378.492 321.552 365.646 292.473 363.381 285.196C361.116 277.919 335.39 269.856 319.333 275.286Z"/><path fill="#0D0F44" d="M319.333 275.286L366.323 293.012C367.97 297.071 370.002 301.907 371.987 306.478C371.987 306.478 330.543 311.606 319.333 275.286Z"/><path fill="#F3ABAA" d="M313.131 257.945C313.131 276.969 331.745 297.556 354.714 297.556C382.67 297.556 398.038 284.584 396.31 257.945C395.072 239.049 377.684 223.517 354.714 223.517C331.745 223.517 313.131 238.93 313.131 257.945Z"/><path fill="#273B4A" d="M332.432 258.667C357.176 260.541 389.897 245.558 389.768 220.976C389.64 196.394 360.855 195.48 356.499 195.48C352.143 195.48 314.086 199.978 302.42 229.761C290.754 259.544 322.062 257.881 332.432 258.667Z"/><path fill="#F3ABAA" d="M310.252 272.743C301.472 268.775 296.867 262.151 299.966 257.949C303.065 253.748 312.694 253.558 321.475 257.527C330.255 261.495 334.86 268.118 331.761 272.32C328.662 276.522 319.032 276.711 310.252 272.743Z"/><path stroke="#0D0F44" stroke-linecap="round" stroke-miterlimit="10" stroke-width=".916" d="M355.366 284.401C355.366 284.401 345.778 285.361 341.866 278.788"/><path stroke="#0D0F44" stroke-linecap="round" stroke-miterlimit="10" stroke-width=".916" d="M319.38 266.647L306.325 262.232"/><path stroke="#0D0F44" stroke-linecap="round" stroke-miterlimit="10" stroke-width=".916" d="M373.645 261.93L376.342 270.935C376.42 271.196 376.428 271.467 376.366 271.731C376.304 271.995 376.173 272.246 375.981 272.468C375.789 272.69 375.541 272.879 375.251 273.023C374.962 273.166 374.637 273.261 374.299 273.302L371.531 273.65"/><path fill="#0D0F44" d="M381.215 257.739C380.815 255.133 381.883 252.889 383.599 252.728C385.315 252.567 387.03 254.549 387.429 257.156C387.829 259.763 386.761 262.006 385.045 262.168C383.329 262.329 381.614 260.346 381.215 257.739Z"/><path fill="#0D0F44" d="M357.172 260.975C356.773 258.368 357.84 256.125 359.556 255.964C361.273 255.802 362.988 257.785 363.387 260.392C363.786 262.998 362.719 265.242 361.003 265.403C359.287 265.564 357.572 263.582 357.172 260.975Z"/><path fill="#FFD550" d="M509.962 148.895C511.644 142.503 515.435 136.567 520.957 131.679C526.479 126.79 533.54 123.119 541.437 121.03C549.335 118.941 557.793 118.507 565.971 119.772C574.149 121.037 581.761 123.956 588.051 128.239C594.34 132.523 599.087 138.02 601.819 144.186C604.551 150.351 605.174 156.969 603.624 163.381C602.074 169.793 598.407 175.776 592.987 180.734C587.566 185.692 580.582 189.452 572.729 191.641C570.957 192.146 569.381 193 568.153 194.121C566.926 195.242 566.089 196.592 565.722 198.04L564.555 202.327C564.034 204.296 563.024 206.165 561.581 207.827C560.138 209.49 558.291 210.914 556.145 212.017C553.998 213.121 551.596 213.883 549.074 214.259C546.551 214.636 543.959 214.619 541.445 214.212C538.93 213.804 536.543 213.013 534.419 211.884C532.295 210.754 530.477 209.308 529.067 207.628C527.657 205.948 526.684 204.067 526.203 202.092C525.722 200.118 525.743 198.088 526.264 196.12L527.432 191.869C527.823 190.435 527.739 188.946 527.187 187.544C526.635 186.142 525.634 184.874 524.279 183.861C518.243 179.494 513.753 173.979 511.245 167.852C508.736 161.725 508.294 155.195 509.962 148.895Z"/><path stroke="#FF2633" stroke-linecap="round" stroke-miterlimit="10" stroke-width="2.291" d="M555.58 193.872L527.671 189.356"/><path stroke="#fff" stroke-linecap="round" stroke-miterlimit="10" stroke-width="1.832" d="M551.714 126.809C551.714 126.809 531.968 129.131 526.257 142.715"/><path stroke="#FF2633" stroke-linecap="round" stroke-miterlimit="10" stroke-width="2.291" d="M609.875 132.485C609.875 132.485 625.757 146.499 617.01 167.626"/><path stroke="#FF2633" stroke-linecap="round" stroke-miterlimit="10" stroke-width="2.291" d="M625.07 122.924C625.07 122.924 648.425 143.556 635.58 174.665"/></svg>