<svg xmlns="http://www.w3.org/2000/svg" width="85" height="84" fill="none" viewBox="0 0 85 84"><rect width="84" height="84" x=".409" y="0" fill="#1E53C0" rx="42"/><path stroke="#fff" stroke-miterlimit="10" stroke-width="3" d="M35.5337 47.4999C40.4697 47.4999 44.4712 43.4984 44.4712 38.5624C44.4712 33.6263 40.4697 29.6249 35.5337 29.6249C30.5976 29.6249 26.5962 33.6263 26.5962 38.5624C26.5962 43.4984 30.5976 47.4999 35.5337 47.4999Z"/><path stroke="#fff" stroke-linecap="round" stroke-linejoin="round" stroke-width="3" d="M47.118 29.9514C47.9081 29.7372 48.7229 29.6274 49.5415 29.6249C51.9119 29.6249 54.1851 30.5665 55.8612 32.2426C57.5374 33.9187 58.479 36.192 58.479 38.5624C58.479 40.9328 57.5374 43.206 55.8612 44.8821C54.1851 46.5583 51.9119 47.4999 49.5415 47.4999"/><path stroke="#fff" stroke-linecap="round" stroke-linejoin="round" stroke-width="3" d="M23.1587 53.928C24.5542 51.9421 26.4072 50.3213 28.5611 49.2023C30.715 48.0834 33.1065 47.4993 35.5337 47.4993C37.9609 47.4993 40.3524 48.0834 42.5063 49.2023C44.6602 50.3213 46.5132 51.9421 47.9087 53.928"/><path stroke="#fff" stroke-linecap="round" stroke-linejoin="round" stroke-width="3" d="M49.5415 47.4999C51.9689 47.4984 54.3609 48.0818 56.515 49.2007C58.6691 50.3197 60.5219 51.9412 61.9165 53.928"/></svg>