<svg width="60" height="60" viewBox="0 0 85 84" fill="none" xmlns="http://www.w3.org/2000/svg">
<rect x="0.408691" width="84" height="84" rx="42" fill="#1E53C0"/>
<path d="M24.5337 30.3125H46.5337C47.9924 30.3125 49.3913 30.892 50.4228 31.9234C51.4542 32.9549 52.0337 34.3538 52.0337 35.8125V52.3125C52.0337 52.6772 51.8888 53.0269 51.631 53.2848C51.3731 53.5426 51.0234 53.6875 50.6587 53.6875H28.6587C27.2 53.6875 25.8011 53.108 24.7696 52.0766C23.7382 51.0451 23.1587 49.6462 23.1587 48.1875V31.6875C23.1587 31.3228 23.3036 30.9731 23.5614 30.7152C23.8193 30.4574 24.169 30.3125 24.5337 30.3125V30.3125Z" stroke="white" stroke-width="3" stroke-linecap="round" stroke-linejoin="round"/>
<path d="M52.0337 39.25L61.6587 33.75V50.25L52.0337 44.75" stroke="white" stroke-width="3" stroke-linecap="round" stroke-linejoin="round"/>
</svg>
