<svg xmlns="http://www.w3.org/2000/svg" width="611" height="813" fill="none" viewBox="0 0 611 813"><rect width="436" height="659" x="548" y="659" fill="#A2C2FE" rx="218" transform="rotate(-180 548 659)"/><path fill="#334DD7" d="M258.386 635.674C258.386 635.674 260.863 665.934 247.388 685.878C233.913 705.822 220.798 718.54 228.6 741.954L330.004 692.099L317.599 624.014L258.386 635.674Z"/><path stroke="#fff" stroke-linecap="round" stroke-miterlimit="10" stroke-width="1.429" d="M256.948 674.504L280.145 670.018"/><path fill="#334DD7" d="M365.304 698.897C365.304 698.897 373.039 729.64 362.574 752.331C352.109 775.021 340.779 790.221 352.803 813L448.662 745.392L424.262 677.31L365.304 698.897Z"/><path stroke="#fff" stroke-linecap="round" stroke-miterlimit="10" stroke-width="1.49" d="M370.276 743.429L394.403 738.476"/><path fill="#F3ABAA" d="M291.3 222.351C291.3 222.351 285.098 192.049 296.011 181.391C306.924 170.734 324.687 166.062 333.877 167.816C340.127 169.026 348.244 171.794 349.357 187.668C350.469 203.541 348.012 208.842 348.012 208.842C348.012 208.842 341.868 229.791 330.085 231.799C318.301 233.806 295.363 233.75 291.3 222.351Z"/><path stroke="#FF2633" stroke-linecap="round" stroke-miterlimit="10" stroke-width=".845" d="M318.622 171.944C318.622 171.944 319.967 182.817 322.114 194.845C323.643 203.344 332.456 205.952 336.084 198.775"/><path fill="#F3ABAA" d="M328.374 213.908C328.374 213.908 321.167 206.637 324.408 196.74C327.649 186.842 332.331 192.049 332.331 192.049C332.331 192.049 342.48 201.187 345.131 204.63C347.22 207.35 350.529 214.95 347.288 219.303C344.633 222.789 341.259 225.703 337.381 227.859C336.085 228.506 332.476 231.152 326.739 228.562C326.256 228.337 318.826 223.14 328.374 213.908Z"/><path fill="#0D0F44" d="M472.224 479.801C472.224 479.801 492.114 455.888 496.526 431.017L344.714 403.698L262.577 450.033C241.593 460.4 217.619 490.937 228.784 540.791C238.739 585.26 249.584 646.343 249.69 647C263.023 653.96 278.412 656.278 293.293 653.567C305.463 651.187 316.903 646.122 326.729 638.763C326.38 636.69 309.856 569.78 303.239 534.28C301.023 522.394 301.207 512.309 312.188 506.595C312.188 506.595 336.858 495.591 344.714 491.669C348.458 489.793 354.881 486.04 361.325 482.175C343.911 503.358 339.16 510.958 336.171 515.817C326.38 531.766 313.745 544.065 321.756 597.118C325.461 621.66 334.739 645.236 347.877 683.269C350.837 691.825 353.982 701.094 357.31 711.311C357.31 711.311 379.687 714.707 401.725 707.558C425.244 699.959 434.754 681.693 434.754 681.693C394.121 590.776 394.257 576.554 405.228 551.702C409.755 541.401 446.238 508.181 472.224 479.801Z"/><path stroke="#fff" stroke-linecap="round" stroke-miterlimit="10" stroke-width=".845" d="M362.477 478.075L358.52 464.528"/><path stroke="#fff" stroke-linecap="round" stroke-miterlimit="10" stroke-width=".845" d="M353.316 699.2C353.316 699.2 390.814 707.643 420.263 681.421"/><path stroke="#fff" stroke-linecap="round" stroke-miterlimit="10" stroke-width=".845" d="M247.574 635.264C247.574 635.264 269.37 647.057 294.418 639.092"/><path fill="#3D5CFF" d="M539.683 307.724C523.575 266.726 481.578 239.707 453.677 232.174C439.866 227.111 424.817 226.131 410.432 229.359C371.734 232.437 336.354 271.295 336.354 271.295C335.88 257.532 335.58 236.583 335.493 229.96C335.48 228.563 334.923 227.223 333.935 226.207C330.443 222.652 321.455 214.724 311.5 215.887C304.858 216.721 298.57 219.278 293.302 223.29C291.705 224.505 290.527 226.165 289.926 228.046C255.03 338.233 265.159 363.582 281.5 373.77C296.93 383.396 309.217 373.658 323.4 365.327C322.278 373.977 321.359 383.152 320.72 392.956C320.72 392.956 318.524 412.038 335.319 420.397C370.853 438.062 402.305 454.94 494.174 436.608C494.174 436.608 497.28 429.891 501.053 418.568C506.897 419.753 512.941 419.644 518.735 418.249C524.53 416.853 529.924 414.208 534.517 410.509C552.908 399.035 557.891 354.06 539.683 307.724Z"/><path fill="#3D5CFF" d="M492.876 293.848C492.876 293.848 498.971 329.076 496.523 339.762L492.876 293.848Z"/><path stroke="#fff" stroke-linecap="round" stroke-miterlimit="10" stroke-width=".845" d="M492.876 293.848C492.876 293.848 498.971 329.076 496.523 339.762"/><path fill="#3D5CFF" d="M370.496 257.683C370.496 257.683 343.881 275.911 325.374 356.508L370.496 257.683Z"/><path stroke="#fff" stroke-linecap="round" stroke-miterlimit="10" stroke-width=".845" d="M370.496 257.683C370.496 257.683 343.881 275.911 325.374 356.508"/><path fill="#FFD550" d="M583.555 106.085C583.555 106.085 592.668 139.137 581.571 154.87C572.729 167.394 586.554 165.668 586.554 165.668C586.554 165.668 600.814 165.79 598.763 136.426C596.915 109.894 583.555 106.085 583.555 106.085Z"/><path fill="#334DD7" d="M508.877 2.24972C513.84 -0.836826 519.955 -0.499089 525.324 1.83693C535.676 6.3401 557.55 18.4705 567.631 25.4879C581.117 34.8695 591.923 42.6563 601.685 51.3718C607.673 56.7287 613.72 68.6902 609.028 80.2296C602.662 95.8969 591.14 118.769 563.819 129.173C556.137 132.091 544.828 130.187 538.665 124.858C520.167 108.909 485.91 76.2705 480.318 54.1112C479.767 51.8899 479.902 49.5605 480.705 47.4127C483.753 39.1945 492.45 12.4475 508.877 2.24972Z"/><path fill="#334DD7" d="M485.185 76.1674C485.185 76.1674 487.99 64.8438 507.755 49.0921C511.383 46.2026 516.366 44.4013 520.758 45.9774C530.432 49.5424 547.082 58.6426 561.807 86.6654C562.885 88.8219 563.334 91.2233 563.105 93.6096C562.877 95.9958 561.98 98.276 560.51 100.203C555.441 106.995 547.566 114.707 520.767 123.188L485.185 76.1674Z"/><path fill="#0D0F44" d="M522.027 122.541C526.732 118.888 522.214 105.838 511.937 93.3942C501.66 80.9501 489.515 73.8239 484.81 77.4774C480.106 81.1308 484.624 94.1804 494.901 106.625C505.178 119.069 517.323 126.195 522.027 122.541Z"/><path fill="#0D0F44" d="M467.868 117.775C467.868 117.775 480.445 125.346 479.932 144.165C479.932 144.165 485.979 141.923 490.245 144.353C496.931 148.105 500.336 163.576 491.01 180.406C491.01 180.406 481.413 208.288 468.884 200.605L431.734 158.556L467.868 117.775Z"/><path fill="#F3ABAA" d="M430.659 188.793C429.305 207.013 416.235 234.022 416.235 234.022C416.235 234.022 429.779 248.704 465.333 240.374C465.333 240.374 466.736 222.652 466.929 217.267C467.79 194.019 463.959 185.66 463.679 189.732L430.659 188.793Z"/><path fill="#0D0F44" d="M423.84 215.841C423.84 215.841 448.994 221.47 466.843 202.847C466.795 202.087 466.747 201.365 466.689 200.671L428.3 201.815C427.052 206.6 425.456 211.422 423.84 215.841Z"/><path fill="#F3ABAA" d="M443.036 210.174C464.44 210.174 481.792 193.348 481.792 172.591C481.792 151.835 464.44 135.009 443.036 135.009C421.631 135.009 404.28 151.835 404.28 172.591C404.28 193.348 421.631 210.174 443.036 210.174Z"/><path fill="#0D0F44" d="M480.911 181.41C478.531 185.885 475.997 185.444 475.271 184C473.278 179.984 474.913 176.494 472.794 163.36C472.03 159.046 469.679 155.146 466.177 152.384C455.796 143.64 439.088 145.77 438.769 145.816C434.677 146.032 430.72 147.383 427.073 148.387C397.788 156.455 396.83 138.358 396.83 130.506C396.83 117.221 407.646 106.442 421.016 106.442C425.227 106.465 429.358 107.559 432.997 109.615C436.635 111.672 439.653 114.618 441.749 118.16C445.631 114.547 450.803 112.531 456.183 112.531C467.919 112.531 477.467 122.006 477.467 133.686C477.477 137.157 476.62 140.578 474.971 143.659C480.254 147.13 482.585 155.01 483.349 158.069C484.965 164.495 483.794 175.978 480.911 181.41Z"/><path fill="#0D0F44" d="M449.682 167.983C450.032 165.065 449.12 162.564 447.645 162.398C446.169 162.231 444.689 164.462 444.339 167.38C443.989 170.298 444.901 172.798 446.376 172.965C447.851 173.131 449.332 170.901 449.682 167.983Z"/><path fill="#0D0F44" d="M429.571 165.704C429.922 162.786 429.01 160.285 427.534 160.118C426.059 159.952 424.579 162.183 424.229 165.101C423.878 168.019 424.79 170.519 426.266 170.686C427.741 170.852 429.221 168.622 429.571 165.704Z"/><path stroke="#0D0F44" stroke-linecap="round" stroke-miterlimit="10" stroke-width=".845" d="M447.029 190.904C447.029 190.904 454.091 193.615 457.013 185.003"/><path fill="#F3ABAA" d="M484.806 188.895C490.49 184.882 492.824 178.599 490.019 174.863C487.213 171.127 480.331 171.352 474.647 175.365C468.962 179.379 466.629 185.662 469.434 189.398C472.239 193.134 479.122 192.909 484.806 188.895Z"/><path stroke="#0D0F44" stroke-linecap="round" stroke-miterlimit="10" stroke-width=".845" d="M475.269 184L486.714 179.252"/><path stroke="#0D0F44" stroke-linecap="round" stroke-miterlimit="10" stroke-width=".845" d="M436.834 167.788L434.309 178.258C434.236 178.562 434.229 178.878 434.288 179.185C434.348 179.491 434.472 179.783 434.654 180.041C434.836 180.298 435.072 180.516 435.345 180.681C435.619 180.846 435.925 180.953 436.243 180.997L438.836 181.401"/><path fill="#fff" d="M466.206 437.556L349.754 419.281C345.353 418.591 341.387 416.304 338.658 412.885C335.93 409.466 334.643 405.169 335.059 400.865L342.653 322.059C343.476 313.616 351.089 308.25 359.845 307.874C378.043 307.105 398.775 306.476 423.532 308.653C447.36 310.754 465.316 313.409 479.132 315.689C495.375 318.363 501.325 327.332 500.135 339.622L492.598 417.752C492.309 420.773 491.382 423.705 489.874 426.364C488.367 429.024 486.313 431.355 483.838 433.212C481.363 435.069 478.52 436.413 475.487 437.16C472.454 437.908 469.295 438.042 466.206 437.556Z"/><path fill="#FF2633" d="M396.068 403.417L388.483 393.876L376.932 396.774C381.079 385.92 386.439 375.539 392.914 365.815L409.825 376.717C404.277 385.119 399.665 394.069 396.068 403.417ZM409.825 376.717L401.37 371.247L409.825 376.707V376.717Z"/><path fill="#FF2633" d="M420.022 404.824C416.152 389.898 414.952 372.973 414.904 372.26L435.22 370.966C435.22 371.125 436.333 386.849 439.758 400.002L428.148 395.864L420.022 404.824Z"/><path fill="#0D0F44" d="M392.921 365.787C392.757 366.012 391.132 368.395 388.848 372.232C392.819 377.841 398.65 381.963 405.372 383.912C407.849 379.616 409.707 376.876 409.823 376.717L401.367 371.257L392.921 365.787Z"/><path fill="#0D0F44" d="M435.181 370.966L414.864 372.26C414.864 372.654 415.271 378.03 416.257 385.291C423.447 385.062 430.342 382.468 435.81 377.936C435.374 373.799 435.181 371.031 435.181 370.966Z"/><path fill="#FF2633" d="M445.767 354.168C446.422 338.886 433.208 325.944 416.253 325.26C399.298 324.577 385.022 336.412 384.367 351.694C383.712 366.976 396.926 379.918 413.881 380.602C430.836 381.285 445.112 369.45 445.767 354.168Z"/><path fill="#FFD550" d="M418.107 340.56L420.177 346.414C420.291 346.724 420.479 347.003 420.726 347.229C420.974 347.454 421.273 347.618 421.599 347.709L427.752 349.36C428.129 349.463 428.468 349.665 428.732 349.945C428.996 350.224 429.174 350.57 429.246 350.942C429.319 351.315 429.282 351.7 429.141 352.053C429.001 352.407 428.761 352.715 428.449 352.944L423.35 356.696C423.079 356.894 422.862 357.153 422.717 357.45C422.572 357.748 422.504 358.075 422.518 358.404L422.799 364.586C422.815 364.965 422.722 365.341 422.53 365.672C422.338 366.002 422.054 366.274 421.711 366.456C421.368 366.639 420.979 366.724 420.588 366.704C420.198 366.684 419.821 366.558 419.5 366.341L414.276 362.785C413.997 362.596 413.675 362.476 413.338 362.435C413.001 362.395 412.659 362.434 412.341 362.55L406.362 364.708C405.996 364.839 405.599 364.869 405.217 364.794C404.834 364.718 404.481 364.541 404.197 364.282C403.912 364.023 403.708 363.692 403.607 363.326C403.506 362.961 403.512 362.575 403.624 362.213L405.491 356.302C405.595 355.985 405.617 355.648 405.554 355.321C405.492 354.993 405.347 354.686 405.133 354.426L401.118 349.538C400.877 349.241 400.727 348.884 400.683 348.508C400.639 348.132 400.705 347.752 400.871 347.41C401.038 347.068 401.3 346.778 401.627 346.572C401.954 346.367 402.334 346.253 402.724 346.245L409.11 346.133C409.451 346.124 409.785 346.034 410.082 345.87C410.379 345.706 410.63 345.474 410.812 345.194L414.343 340.035C414.56 339.708 414.869 339.448 415.234 339.287C415.598 339.125 416.003 339.069 416.399 339.124C416.796 339.18 417.168 339.344 417.47 339.599C417.773 339.853 417.994 340.187 418.107 340.56Z"/><path stroke="#DADEEB" stroke-linecap="round" stroke-miterlimit="10" stroke-width="1.267" d="M363.504 314.366C363.504 314.366 350.288 313.015 349.137 324.254L347.937 335.512"/><path stroke="#DADEEB" stroke-linecap="round" stroke-miterlimit="10" stroke-width="1.267" d="M464.137 320.22C464.137 320.22 479.616 321.412 488.478 327.304"/><path fill="#F3ABAA" d="M474.643 359.107C474.643 359.107 477.787 345.354 494.07 350.448C510.352 355.542 516.215 366.012 516.157 370.947C516.157 373.236 517.704 415.584 504.673 419.084C499.1 420.585 475.649 418.933 470.967 399.326C466.284 379.718 474.643 359.107 474.643 359.107Z"/><path stroke="#FF2633" stroke-linecap="round" stroke-miterlimit="10" stroke-width=".845" d="M477.844 357.521C477.844 357.521 489.676 359.173 495.5 363.873"/><path stroke="#FF2633" stroke-linecap="round" stroke-miterlimit="10" stroke-width=".845" d="M474.776 369.464C474.776 369.464 486.608 371.115 492.432 375.815"/><path stroke="#FF2633" stroke-linecap="round" stroke-miterlimit="10" stroke-width=".845" d="M473.402 380.337C473.402 380.337 485.282 381.989 491.087 386.679"/><path stroke="#FF2633" stroke-linecap="round" stroke-miterlimit="10" stroke-width=".845" d="M473.402 393.481C473.402 393.481 482.835 393.481 488.659 398.172"/><path fill="#FFD550" d="M88.8566 375.29L102.159 385.469C102.865 386.014 103.697 386.384 104.584 386.547C105.47 386.711 106.385 386.663 107.248 386.407L123.433 381.557C124.426 381.257 125.485 381.233 126.491 381.488C127.497 381.742 128.409 382.265 129.124 382.996C129.839 383.728 130.328 384.639 130.537 385.626C130.745 386.614 130.664 387.638 130.302 388.583L124.42 403.988C124.106 404.809 124.003 405.691 124.119 406.559C124.236 407.427 124.568 408.254 125.088 408.97L134.849 422.404C135.448 423.227 135.797 424.196 135.857 425.201C135.917 426.206 135.686 427.208 135.19 428.092C134.694 428.977 133.952 429.709 133.049 430.206C132.146 430.703 131.117 430.944 130.08 430.904L113.149 430.247C112.247 430.211 111.349 430.389 110.533 430.765C109.717 431.141 109.008 431.704 108.467 432.405L98.3086 445.539C97.6846 446.337 96.8437 446.951 95.8802 447.312C94.9167 447.673 93.8685 447.767 92.8532 447.583C91.8378 447.399 90.8954 446.944 90.1314 446.27C89.3674 445.596 88.8121 444.729 88.5276 443.766L83.9129 427.911C83.667 427.069 83.2148 426.298 82.5949 425.662C81.9749 425.027 81.2057 424.546 80.3527 424.262L64.3413 418.999C63.3576 418.675 62.487 418.09 61.8282 417.311C61.1693 416.532 60.7486 415.59 60.6137 414.591C60.4788 413.592 60.635 412.577 61.0647 411.659C61.4944 410.742 62.1804 409.96 63.045 409.401L77.1407 400.282C77.8924 399.798 78.511 399.144 78.9426 398.375C79.3742 397.607 79.6058 396.748 79.6174 395.873L79.8206 379.446C79.8317 378.435 80.1356 377.447 80.6976 376.596C81.2596 375.744 82.0571 375.063 82.9992 374.629C83.9412 374.196 84.9899 374.028 86.0255 374.145C87.0612 374.262 88.0422 374.658 88.8566 375.29Z"/><path fill="#BEDDFA" d="M142.347 190.453L28.5399 218.133C27.4939 218.392 26.4047 218.443 25.3377 218.284C24.2707 218.125 23.2478 217.758 22.3306 217.206C21.4134 216.654 20.6208 215.928 20.0003 215.071C19.3798 214.214 18.9442 213.245 18.7198 212.221L0.274386 128.523C0.0432955 127.48 0.0361271 126.402 0.253327 125.355C0.470528 124.309 0.907448 123.318 1.5369 122.442C2.16635 121.567 2.97485 120.826 3.9121 120.267C4.84935 119.708 5.89527 119.341 6.98479 119.191L123.345 103.098C125.36 102.812 127.411 103.281 129.083 104.408C130.754 105.535 131.921 107.237 132.347 109.168L148.214 181.28C148.651 183.248 148.283 185.303 147.189 187.014C146.095 188.725 144.359 189.958 142.347 190.453Z"/><path fill="#fff" d="M148.294 181.621C148.294 181.51 148.294 181.399 148.237 181.28L148.13 180.962C148.024 180.962 137.893 183.954 122.164 167.995C104.521 150.108 89.7907 151.569 78.9313 154.838C75.9013 155.82 73.0469 157.253 70.4697 159.084C67.2004 155.644 62.9694 153.201 58.2927 152.053C50.7395 150.045 38.7016 152.941 22.5067 160.671C17.4002 163.099 12.6866 165.654 8.914 167.813L9.07767 168.519C21.6474 161.377 45.4448 149.354 58.1045 152.727C62.6243 153.837 66.7168 156.19 69.8886 159.504C62.5727 164.734 55.7641 173.138 54.0946 181.724C52.7198 188.787 55.0521 194.889 60.846 199.381C62.2562 200.568 64.0882 201.174 65.9524 201.071C66.5746 201.02 67.1862 200.884 67.7691 200.666C72.6792 198.849 76.2472 191.882 77.2537 185.946C78.1482 180.123 77.6925 174.181 75.9198 168.551C74.8755 165.279 73.1795 162.238 70.9279 159.599C73.424 157.835 76.1837 156.451 79.1114 155.497C89.7498 152.283 104.243 150.862 121.665 168.479C137.345 184.375 147.394 181.883 148.294 181.621ZM75.2733 168.757C77.021 174.288 77.4711 180.129 76.5909 185.851C75.6334 191.405 72.1063 198.31 67.54 200.024C65.4287 200.817 63.3337 200.405 61.3124 198.841C58.6443 196.924 56.6061 194.299 55.4442 191.282C54.2824 188.265 54.0467 184.987 54.7657 181.843C56.4024 173.392 63.1291 165.123 70.3142 159.996C72.5515 162.568 74.2375 165.546 75.2733 168.757Z"/><path stroke="#fff" stroke-linecap="round" d="M515.737 54.0129C522.102 57.5403 547.797 73.9989 548.942 102.867C548.942 107.309 547.797 117.746 538.637 119.522L529.477 122.853"/></svg>